<?xml version="1.0" encoding="UTF-8" standalone="no"?>
<!-- Created with Inkscape (http://www.inkscape.org/) -->

<svg
   xmlns:dc="http://purl.org/dc/elements/1.1/"
   xmlns:cc="http://creativecommons.org/ns#"
   xmlns:rdf="http://www.w3.org/1999/02/22-rdf-syntax-ns#"
   xmlns:svg="http://www.w3.org/2000/svg"
   xmlns="http://www.w3.org/2000/svg"
   xmlns:sodipodi="http://sodipodi.sourceforge.net/DTD/sodipodi-0.dtd"
   xmlns:inkscape="http://www.inkscape.org/namespaces/inkscape"
   width="56.444782mm"
   height="56.444809mm"
   viewBox="0 0 200.00119 200.00128"
   id="svg2"
   version="1.1"
   inkscape:version="0.91 r13725"
   inkscape:export-filename="/home/bony2023/Desktop/logo.png"
   inkscape:export-xdpi="89.999954"
   inkscape:export-ydpi="89.999954"
   sodipodi:docname="logo.svg">
  <defs
     id="defs4" />
  <sodipodi:namedview
     id="base"
     pagecolor="#ffffff"
     bordercolor="#666666"
     borderopacity="1.0"
     inkscape:pageopacity="0.0"
     inkscape:pageshadow="2"
     inkscape:zoom="1.4701645"
     inkscape:cx="-33.970943"
     inkscape:cy="91.626551"
     inkscape:document-units="px"
     inkscape:current-layer="g4802"
     showgrid="true"
     showborder="false"
     inkscape:snap-global="true"
     fit-margin-top="0"
     fit-margin-left="0"
     fit-margin-right="0"
     fit-margin-bottom="0"
     inkscape:window-width="1375"
     inkscape:window-height="876"
     inkscape:window-x="65"
     inkscape:window-y="24"
     inkscape:window-maximized="1" />
  <metadata
     id="metadata7">
    <rdf:RDF>
      <cc:Work
         rdf:about="">
        <dc:format>image/svg+xml</dc:format>
        <dc:type
           rdf:resource="http://purl.org/dc/dcmitype/StillImage" />
        <dc:title></dc:title>
      </cc:Work>
    </rdf:RDF>
  </metadata>
  <g
     inkscape:label="Layer 1"
     inkscape:groupmode="layer"
     id="layer1"
     transform="translate(128.67164,-1148.731)">
    <path
       style="opacity:1;fill:#000000;fill-opacity:1;stroke:#000000;stroke-width:0.83980626;stroke-linecap:round;stroke-linejoin:bevel;stroke-miterlimit:4;stroke-dasharray:none;stroke-dashoffset:0;stroke-opacity:1"
       d=""
       id="path4251"
       inkscape:connector-curvature="0" />
    <path
       style="opacity:1;fill:#000000;fill-opacity:1;stroke:#000000;stroke-width:0.83980626;stroke-linecap:round;stroke-linejoin:bevel;stroke-miterlimit:4;stroke-dasharray:none;stroke-dashoffset:0;stroke-opacity:1"
       d=""
       id="path4253"
       inkscape:connector-curvature="0" />
    <path
       style="opacity:1;fill:#000000;fill-opacity:1;stroke:#000000;stroke-width:0.29691634;stroke-linecap:round;stroke-linejoin:bevel;stroke-miterlimit:4;stroke-dasharray:none;stroke-dashoffset:0;stroke-opacity:1"
       d=""
       id="path4259"
       inkscape:connector-curvature="0" />
    <g
       id="g4802"
       transform="translate(2.7459339e-6,-0.11626988)">
      <g
         style="font-style:normal;font-weight:normal;font-size:143.37846375px;line-height:125%;font-family:sans-serif;letter-spacing:22.94055367px;word-spacing:0px;fill:#ffffff;fill-opacity:1;stroke:none;stroke-width:1px;stroke-linecap:butt;stroke-linejoin:miter;stroke-opacity:1"
         id="text4330" />
      <path
         style="opacity:1;fill:#323232;fill-opacity:1;stroke:#323232;stroke-width:4.36919069;stroke-linecap:round;stroke-linejoin:bevel;stroke-miterlimit:4;stroke-dasharray:none;stroke-dashoffset:0;stroke-opacity:1"
         id="path4374"
         sodipodi:type="arc"
         sodipodi:cx="-28.671581"
         sodipodi:cy="1248.8485"
         sodipodi:rx="97.814766"
         sodipodi:ry="97.814766"
         sodipodi:start="0.029378778"
         sodipodi:end="0.025272717"
         sodipodi:open="true"
         d="m 69.100975,1251.7218 a 97.814766,97.814766 0 0 1 -100.545455,94.9022 97.814766,97.814766 0 0 1 -95.00535,-100.448 97.814766,97.814766 0 0 1 100.350405,-95.1084 97.814766,97.814766 0 0 1 95.211374,100.2527" />
      <path
         d="m -105.33193,1280.546 2.12948,0 q 0.79855,0 1.34179,-0.4835 0.54323,-0.4834 0.54323,-1.1408 0,-0.6573 -0.54323,-1.1353 -0.54324,-0.4781 -1.34179,-0.4781 l -2.12948,0 0,3.2377 z m 3.40608,-5.2313 0,-0.011 q 0,-0.4726 -0.40199,-0.8312 -0.39656,-0.3639 -0.97783,-0.3639 l -2.02626,0 0,2.3739 2.02626,0 q 0.59213,0 0.98326,-0.3477 0.39656,-0.3531 0.39656,-0.8202 z m -1.34722,-2.0426 q 0.91263,0 1.56451,0.603 0.65732,0.5975 0.65732,1.4396 0,0.4454 -0.201,0.842 -0.20099,0.3911 -0.5541,0.6682 0.61929,0.315 0.98326,0.8746 0.3694,0.5541 0.3694,1.2222 0,0.6791 -0.38027,1.2495 -0.37483,0.5704 -1.00498,0.8909 -0.63015,0.3205 -1.36352,0.3205 l -2.99322,0 0,-8.1105 2.9226,0 z"
         style="font-style:normal;font-variant:normal;font-weight:bold;font-stretch:normal;font-size:143.37846375px;line-height:125%;font-family:Sawasdee;-inkscape-font-specification:'Sawasdee Bold';letter-spacing:22.94055367px;word-spacing:0px;fill:#ffffff;fill-opacity:1;stroke:none;stroke-width:1px;stroke-linecap:butt;stroke-linejoin:miter;stroke-opacity:1"
         id="path4835"
         inkscape:connector-curvature="0" />
      <path
         d="m -89.525543,1275.7275 q 0.336805,0.766 0.336805,1.608 0,0.842 -0.336805,1.608 -0.331373,0.7605 -0.90177,1.3092 -0.564964,0.5486 -1.347222,0.8746 -0.776825,0.3259 -1.629703,0.3259 -0.858311,0 -1.646,-0.3259 -0.782258,-0.326 -1.352655,-0.8746 -0.564964,-0.5487 -0.901769,-1.3092 -0.336805,-0.766 -0.336805,-1.608 0,-0.842 0.336805,-1.608 0.336805,-0.7659 0.901769,-1.32 0.570397,-0.5541 1.352655,-0.8801 0.787689,-0.3259 1.646,-0.3259 0.852878,0 1.629703,0.3259 0.782258,0.326 1.347222,0.8801 0.570397,0.5541 0.90177,1.32 z m -7.246749,1.608 q 0,0.6682 0.260752,1.2766 0.266185,0.6084 0.711637,1.0539 0.450885,0.44 1.075605,0.7007 0.630152,0.2608 1.32006,0.2608 0.912634,0 1.684027,-0.44 0.776825,-0.4455 1.22771,-1.2006 0.450885,-0.7605 0.450885,-1.6514 0,-0.8963 -0.450885,-1.6569 -0.450885,-0.7605 -1.22771,-1.2005 -0.771393,-0.44 -1.684027,-0.44 -0.689908,0 -1.314627,0.2607 -0.62472,0.2608 -1.075605,0.7008 -0.450885,0.44 -0.71707,1.0539 -0.260752,0.6084 -0.260752,1.282 z"
         style="font-style:normal;font-variant:normal;font-weight:bold;font-stretch:normal;font-size:143.37846375px;line-height:125%;font-family:Sawasdee;-inkscape-font-specification:'Sawasdee Bold';letter-spacing:22.94055367px;word-spacing:0px;fill:#ffffff;fill-opacity:1;stroke:none;stroke-width:1px;stroke-linecap:butt;stroke-linejoin:miter;stroke-opacity:1"
         id="path4837"
         inkscape:connector-curvature="0" />
      <path
         d="m -86.121203,1281.3826 0,-8.192 6.687218,6.2201 0,-6.1386 0.863742,0 0,8.2028 -6.687216,-6.22 0,6.1277 -0.863744,0 z"
         style="font-style:normal;font-variant:normal;font-weight:bold;font-stretch:normal;font-size:143.37846375px;line-height:125%;font-family:Sawasdee;-inkscape-font-specification:'Sawasdee Bold';letter-spacing:22.94055367px;word-spacing:0px;fill:#ffffff;fill-opacity:1;stroke:none;stroke-width:1px;stroke-linecap:butt;stroke-linejoin:miter;stroke-opacity:1"
         id="path4839"
         inkscape:connector-curvature="0" />
      <path
         d="m -75.899266,1273.2721 0.994119,0 2.433691,3.7483 2.422826,-3.7483 0.994119,0 -2.993222,4.6338 0,3.4767 -0.863743,0 0,-3.4767 -2.98779,-4.6338 z"
         style="font-style:normal;font-variant:normal;font-weight:bold;font-stretch:normal;font-size:143.37846375px;line-height:125%;font-family:Sawasdee;-inkscape-font-specification:'Sawasdee Bold';letter-spacing:22.94055367px;word-spacing:0px;fill:#ffffff;fill-opacity:1;stroke:none;stroke-width:1px;stroke-linecap:butt;stroke-linejoin:miter;stroke-opacity:1"
         id="path4841"
         inkscape:connector-curvature="0" />
      <path
         d="m -60.637853,1281.3826 0,-8.1105 3.014953,0 q 0.934363,0 1.586244,0.6627 0.651882,0.6574 0.651882,1.5863 0,0.7388 -0.429156,1.3255 -0.423723,0.5812 -1.102766,0.804 l 2.102318,3.732 -0.983254,0 -2.042562,-3.6342 -1.933915,0 0,3.6342 -0.863744,0 z m 0.863744,-4.4763 2.17837,0 q 0.548667,0 0.945228,-0.402 0.401994,-0.4074 0.401994,-0.9832 0,-0.5867 -0.401994,-0.9996 -0.401994,-0.4128 -0.972389,-0.4128 l -2.151209,0 0,2.7976 z"
         style="font-style:normal;font-variant:normal;font-weight:bold;font-stretch:normal;font-size:143.37846375px;line-height:125%;font-family:Sawasdee;-inkscape-font-specification:'Sawasdee Bold';letter-spacing:22.94055367px;word-spacing:0px;fill:#ffffff;fill-opacity:1;stroke:none;stroke-width:1px;stroke-linecap:butt;stroke-linejoin:miter;stroke-opacity:1"
         id="path4843"
         inkscape:connector-curvature="0" />
      <path
         d="m -44.293664,1275.7275 q 0.336805,0.766 0.336805,1.608 0,0.842 -0.336805,1.608 -0.331373,0.7605 -0.90177,1.3092 -0.564964,0.5486 -1.347222,0.8746 -0.776825,0.3259 -1.629703,0.3259 -0.858311,0 -1.646,-0.3259 -0.782258,-0.326 -1.352655,-0.8746 -0.564964,-0.5487 -0.901769,-1.3092 -0.336805,-0.766 -0.336805,-1.608 0,-0.842 0.336805,-1.608 0.336805,-0.7659 0.901769,-1.32 0.570397,-0.5541 1.352655,-0.8801 0.787689,-0.3259 1.646,-0.3259 0.852878,0 1.629703,0.3259 0.782258,0.326 1.347222,0.8801 0.570397,0.5541 0.90177,1.32 z m -7.246749,1.608 q 0,0.6682 0.260752,1.2766 0.266185,0.6084 0.711637,1.0539 0.450885,0.44 1.075605,0.7007 0.630152,0.2608 1.32006,0.2608 0.912634,0 1.684027,-0.44 0.776825,-0.4455 1.22771,-1.2006 0.450885,-0.7605 0.450885,-1.6514 0,-0.8963 -0.450885,-1.6569 -0.450885,-0.7605 -1.22771,-1.2005 -0.771393,-0.44 -1.684027,-0.44 -0.689908,0 -1.314627,0.2607 -0.62472,0.2608 -1.075605,0.7008 -0.450885,0.44 -0.71707,1.0539 -0.260752,0.6084 -0.260752,1.282 z"
         style="font-style:normal;font-variant:normal;font-weight:bold;font-stretch:normal;font-size:143.37846375px;line-height:125%;font-family:Sawasdee;-inkscape-font-specification:'Sawasdee Bold';letter-spacing:22.94055367px;word-spacing:0px;fill:#ffffff;fill-opacity:1;stroke:none;stroke-width:1px;stroke-linecap:butt;stroke-linejoin:miter;stroke-opacity:1"
         id="path4845"
         inkscape:connector-curvature="0" />
      <path
         d="m -33.017854,1275.7275 q 0.336809,0.766 0.336809,1.608 0,0.842 -0.336809,1.608 -0.331369,0.7605 -0.901769,1.3092 -0.564961,0.5486 -1.347219,0.8746 -0.776826,0.3259 -1.629703,0.3259 -0.858309,0 -1.645999,-0.3259 -0.782257,-0.326 -1.352658,-0.8746 -0.564961,-0.5487 -0.901769,-1.3092 -0.336804,-0.766 -0.336804,-1.608 0,-0.842 0.336804,-1.608 0.336808,-0.7659 0.901769,-1.32 0.570401,-0.5541 1.352658,-0.8801 0.78769,-0.3259 1.645999,-0.3259 0.852877,0 1.629703,0.3259 0.782258,0.326 1.347219,0.8801 0.5704,0.5541 0.901769,1.32 z m -7.246746,1.608 q 0,0.6682 0.26075,1.2766 0.266189,0.6084 0.711638,1.0539 0.450889,0.44 1.075606,0.7007 0.630148,0.2608 1.320061,0.2608 0.912632,0 1.684027,-0.44 0.776826,-0.4455 1.227707,-1.2006 0.450889,-0.7605 0.450889,-1.6514 0,-0.8963 -0.450889,-1.6569 -0.450881,-0.7605 -1.227707,-1.2005 -0.771395,-0.44 -1.684027,-0.44 -0.689913,0 -1.314629,0.2607 -0.624717,0.2608 -1.075606,0.7008 -0.450881,0.44 -0.71707,1.0539 -0.26075,0.6084 -0.26075,1.282 z"
         style="font-style:normal;font-variant:normal;font-weight:bold;font-stretch:normal;font-size:143.37846375px;line-height:125%;font-family:Sawasdee;-inkscape-font-specification:'Sawasdee Bold';letter-spacing:22.94055367px;word-spacing:0px;fill:#ffffff;fill-opacity:1;stroke:none;stroke-width:1px;stroke-linecap:butt;stroke-linejoin:miter;stroke-opacity:1"
         id="path4847"
         inkscape:connector-curvature="0" />
      <path
         d="m -29.613508,1281.3826 0,-8.1105 3.014952,0 q 0.934359,0 1.586242,0.6627 0.651883,0.6574 0.651883,1.5863 0,0.9235 -0.646451,1.5808 -0.646451,0.6573 -1.564516,0.6573 l -2.178369,0 0,3.6234 -0.863741,0 z m 0.863741,-4.4763 2.178369,0 q 0.548666,0 0.945231,-0.402 0.401988,-0.4074 0.401988,-0.9832 0,-0.5867 -0.401988,-0.9996 -0.401997,-0.4128 -0.972389,-0.4128 l -2.151211,0 0,2.7976 z"
         style="font-style:normal;font-variant:normal;font-weight:bold;font-stretch:normal;font-size:143.37846375px;line-height:125%;font-family:Sawasdee;-inkscape-font-specification:'Sawasdee Bold';letter-spacing:22.94055367px;word-spacing:0px;fill:#ffffff;fill-opacity:1;stroke:none;stroke-width:1px;stroke-linecap:butt;stroke-linejoin:miter;stroke-opacity:1"
         id="path4849"
         inkscape:connector-curvature="0" />
      <path
         d="m -14.491596,1279.1662 0.695336,0.4509 q -1.385248,1.8361 -3.503862,1.8361 -0.858308,0 -1.645998,-0.3259 -0.782258,-0.326 -1.352658,-0.8746 -0.564961,-0.5487 -0.901762,-1.3092 -0.336809,-0.766 -0.336809,-1.608 0,-0.842 0.336809,-1.608 0.336801,-0.7659 0.901762,-1.32 0.5704,-0.5541 1.352658,-0.8801 0.78769,-0.3259 1.645998,-0.3259 0.434586,0 0.842014,0.082 0.407428,0.082 0.71707,0.2064 0.309643,0.1195 0.602991,0.2988 0.293347,0.1792 0.48891,0.3422 0.195562,0.1576 0.385701,0.3585 0.190131,0.1956 0.282477,0.3097 0.09235,0.1086 0.184699,0.239 l -0.684473,0.4944 q -0.14667,-0.1847 -0.239023,-0.2934 -0.09235,-0.1086 -0.380262,-0.364 -0.282485,-0.2553 -0.559537,-0.4074 -0.277045,-0.1575 -0.722502,-0.2879 -0.440018,-0.1304 -0.918065,-0.1304 -0.689904,0 -1.314629,0.2608 -0.624717,0.2607 -1.075598,0.7008 -0.450888,0.44 -0.71707,1.0538 -0.260758,0.6084 -0.260758,1.2821 0,0.6681 0.260758,1.2766 0.266182,0.6084 0.711631,1.0538 0.450889,0.4401 1.075606,0.7008 0.630156,0.2608 1.32006,0.2608 0.472615,0 0.907201,-0.125 0.440026,-0.1249 0.727934,-0.2879 0.287916,-0.163 0.554106,-0.3966 0.271613,-0.2335 0.385693,-0.3694 0.119512,-0.1358 0.233592,-0.2933 z"
         style="font-style:normal;font-variant:normal;font-weight:bold;font-stretch:normal;font-size:143.37846375px;line-height:125%;font-family:Sawasdee;-inkscape-font-specification:'Sawasdee Bold';letter-spacing:22.94055367px;word-spacing:0px;fill:#ffffff;fill-opacity:1;stroke:none;stroke-width:1px;stroke-linecap:butt;stroke-linejoin:miter;stroke-opacity:1"
         id="path4851"
         inkscape:connector-curvature="0" />
      <path
         d="m -5.5516969,1273.2721 0.8637403,0 0,8.1105 -0.8637403,0 0,-4.259 -4.3187171,0 0,4.259 -0.86374,0 0,-8.1105 0.86374,0 0,3.015 4.3187171,0 0,-3.015 z"
         style="font-style:normal;font-variant:normal;font-weight:bold;font-stretch:normal;font-size:143.37846375px;line-height:125%;font-family:Sawasdee;-inkscape-font-specification:'Sawasdee Bold';letter-spacing:22.94055367px;word-spacing:0px;fill:#ffffff;fill-opacity:1;stroke:none;stroke-width:1px;stroke-linecap:butt;stroke-linejoin:miter;stroke-opacity:1"
         id="path4853"
         inkscape:connector-curvature="0" />
      <path
         d="m 0.29176072,1278.1341 2.63468958,0 -1.3254922,-2.7814 -1.30919738,2.7814 z m -0.3965567,0.8365 -1.00498642,2.4011 -0.9234961,0 3.6233733,-8.1811 3.6233733,8.1811 -0.9289278,0 -1.0212814,-2.4011 -3.36805488,0 z"
         style="font-style:normal;font-variant:normal;font-weight:bold;font-stretch:normal;font-size:143.37846375px;line-height:125%;font-family:Sawasdee;-inkscape-font-specification:'Sawasdee Bold';letter-spacing:22.94055367px;word-spacing:0px;fill:#ffffff;fill-opacity:1;stroke:none;stroke-width:1px;stroke-linecap:butt;stroke-linejoin:miter;stroke-opacity:1"
         id="path4855"
         inkscape:connector-curvature="0" />
      <path
         d="m 7.8844489,1281.3826 0,-8.192 6.6872171,6.2201 0,-6.1386 0.863748,0 0,8.2028 -6.6872171,-6.22 0,6.1277 -0.863748,0 z"
         style="font-style:normal;font-variant:normal;font-weight:bold;font-stretch:normal;font-size:143.37846375px;line-height:125%;font-family:Sawasdee;-inkscape-font-specification:'Sawasdee Bold';letter-spacing:22.94055367px;word-spacing:0px;fill:#ffffff;fill-opacity:1;stroke:none;stroke-width:1px;stroke-linecap:butt;stroke-linejoin:miter;stroke-opacity:1"
         id="path4857"
         inkscape:connector-curvature="0" />
      <path
         d="m 19.611147,1280.546 0.93436,0 q 0.923504,0 1.69489,-0.4183 0.771395,-0.4237 1.222284,-1.1625 0.450881,-0.7388 0.450881,-1.6297 0,-0.8963 -0.450881,-1.6351 -0.450889,-0.7443 -1.222284,-1.168 -0.771386,-0.4237 -1.69489,-0.4237 l -0.93436,0 0,6.4373 z m -0.863748,0.8366 0,-8.1105 1.798108,0 q 1.146224,0 2.113181,0.5378 0.972389,0.5324 1.537358,1.4667 0.570393,0.9344 0.570393,2.0589 0,1.1191 -0.570393,2.0534 -0.564969,0.929 -1.537358,1.4613 -0.966957,0.5324 -2.113181,0.5324 l -1.798108,0 z"
         style="font-style:normal;font-variant:normal;font-weight:bold;font-stretch:normal;font-size:143.37846375px;line-height:125%;font-family:Sawasdee;-inkscape-font-specification:'Sawasdee Bold';letter-spacing:22.94055367px;word-spacing:0px;fill:#ffffff;fill-opacity:1;stroke:none;stroke-width:1px;stroke-linecap:butt;stroke-linejoin:miter;stroke-opacity:1"
         id="path4859"
         inkscape:connector-curvature="0" />
      <path
         d="m 29.534298,1278.1341 2.634682,0 -1.325492,-2.7814 -1.30919,2.7814 z m -0.396564,0.8365 -1.004986,2.4011 -0.923497,0 3.623374,-8.1811 3.623373,8.1811 -0.928928,0 -1.021281,-2.4011 -3.368055,0 z"
         style="font-style:normal;font-variant:normal;font-weight:bold;font-stretch:normal;font-size:143.37846375px;line-height:125%;font-family:Sawasdee;-inkscape-font-specification:'Sawasdee Bold';letter-spacing:22.94055367px;word-spacing:0px;fill:#ffffff;fill-opacity:1;stroke:none;stroke-width:1px;stroke-linecap:butt;stroke-linejoin:miter;stroke-opacity:1"
         id="path4861"
         inkscape:connector-curvature="0" />
      <path
         d="m 37.126987,1281.3826 0,-8.192 6.687217,6.2201 0,-6.1386 0.86374,0 0,8.2028 -6.687217,-6.22 0,6.1277 -0.86374,0 z"
         style="font-style:normal;font-variant:normal;font-weight:bold;font-stretch:normal;font-size:143.37846375px;line-height:125%;font-family:Sawasdee;-inkscape-font-specification:'Sawasdee Bold';letter-spacing:22.94055367px;word-spacing:0px;fill:#ffffff;fill-opacity:1;stroke:none;stroke-width:1px;stroke-linecap:butt;stroke-linejoin:miter;stroke-opacity:1"
         id="path4863"
         inkscape:connector-curvature="0" />
      <path
         d="m 48.853677,1281.3826 -0.86374,0 0,-8.1105 0.86374,0 0,8.1105 z"
         style="font-style:normal;font-variant:normal;font-weight:bold;font-stretch:normal;font-size:143.37846375px;line-height:125%;font-family:Sawasdee;-inkscape-font-specification:'Sawasdee Bold';letter-spacing:22.94055367px;word-spacing:0px;fill:#ffffff;fill-opacity:1;stroke:none;stroke-width:1px;stroke-linecap:butt;stroke-linejoin:miter;stroke-opacity:1"
         id="path4865"
         inkscape:connector-curvature="0" />
      <g
         id="g4773"
         transform="matrix(0.07759494,0,0,0.07759494,-118.68678,1244.1841)">
        <g
           id="g4756">
          <path
             sodipodi:nodetypes="csssc"
             inkscape:connector-curvature="0"
             id="path4140-2"
             d="m 1245.8114,-141.02334 c 26.8789,148.8387914 180.5358,287.89608 350.2911,330.63046 286.8431,72.21021 346.7786,-162.54573 330.9899,-349.9515 -16.2279,-192.6186 -207.8442,-185.24618 -316.0193,-185.78252 -186.2104,-0.92323 -402.0682,11.60913 -365.5799,203.14495"
             style="opacity:1;fill:none;fill-opacity:1;stroke:#ffffff;stroke-width:28.39813423;stroke-linecap:round;stroke-linejoin:bevel;stroke-miterlimit:4;stroke-dasharray:none;stroke-dashoffset:0;stroke-opacity:1" />
          <path
             sodipodi:nodetypes="ccccc"
             inkscape:connector-curvature="0"
             id="rect4225"
             d="m 1060.6049,-273.99261 c 58.3711,16.70474 123.9963,23.25941 202.1187,0 l -18.8204,89.43055 c -72.6769,-44.2728 -94.4217,-43.9897 -164.1135,2.37534 z"
             style="opacity:1;fill:#ffffff;fill-opacity:1;stroke:#ffffff;stroke-width:0.61890161;stroke-linecap:round;stroke-linejoin:bevel;stroke-miterlimit:4;stroke-dasharray:none;stroke-dashoffset:0;stroke-opacity:1" />
          <g
             id="g4742">
            <path
               style="color:#000000;font-style:normal;font-variant:normal;font-weight:normal;font-stretch:normal;font-size:medium;line-height:normal;font-family:sans-serif;text-indent:0;text-align:start;text-decoration:none;text-decoration-line:none;text-decoration-style:solid;text-decoration-color:#000000;letter-spacing:normal;word-spacing:normal;text-transform:none;direction:ltr;block-progression:tb;writing-mode:lr-tb;baseline-shift:baseline;text-anchor:start;white-space:normal;clip-rule:nonzero;display:inline;overflow:visible;visibility:visible;opacity:1;isolation:auto;mix-blend-mode:normal;color-interpolation:sRGB;color-interpolation-filters:linearRGB;solid-color:#000000;solid-opacity:1;fill:#ffffff;fill-opacity:1;fill-rule:nonzero;stroke:none;stroke-width:6.25;stroke-linecap:round;stroke-linejoin:bevel;stroke-miterlimit:4;stroke-dasharray:none;stroke-dashoffset:0;stroke-opacity:1;color-rendering:auto;image-rendering:auto;shape-rendering:auto;text-rendering:auto;enable-background:accumulate"
               d="m 1983.4517,-313.45554 3.5497,3.54977 c 14.1713,39.37475 9.5196,74.04375 0,107.49583 l -3.5497,3.54976 -72.0907,0 -0.3827,-53.43171 -60.9668,-57.61388 -47.3986,-30.42357 c 54.03,11.95299 129.7695,26.76328 180.8388,26.8738 z m -3.5498,7.09954 -122.7909,0 38.7971,25.96926 83.9938,74.42703 z"
               id="rect4162-6"
               inkscape:connector-curvature="0"
               sodipodi:nodetypes="cccccccccccccc" />
            <path
               style="opacity:1;fill:#ffffff;fill-opacity:1;stroke:#ffffff;stroke-width:10.06545734;stroke-linecap:round;stroke-linejoin:bevel;stroke-miterlimit:4;stroke-dasharray:none;stroke-dashoffset:0;stroke-opacity:1"
               d="m 1978.9869,-257.14684 0,-49.6085 -55.3068,0 -55.3069,0 19.8327,18.86337 c 10.908,10.37484 33.4107,30.5195 50.0061,44.76588 16.5953,14.24638 32.5588,28.08169 35.474,30.74513 l 5.3009,4.84261 0,-49.60849 z"
               id="path4168-6"
               inkscape:connector-curvature="0" />
            <path
               style="fill:none;fill-rule:evenodd;stroke:#ffffff;stroke-width:1.14939272px;stroke-linecap:butt;stroke-linejoin:miter;stroke-opacity:1"
               d="m 1985.1044,-203.22181 c -36.7207,-0.18224 -46.7545,29.87577 -42.9568,75.60677"
               id="path4172-7"
               inkscape:connector-curvature="0"
               sodipodi:nodetypes="cc" />
            <path
               style="opacity:1;fill:none;fill-opacity:1;stroke:none;stroke-width:4.35645294;stroke-linecap:round;stroke-linejoin:bevel;stroke-miterlimit:4;stroke-dasharray:none;stroke-dashoffset:0;stroke-opacity:1"
               d="m 1941.8892,-163.58563 c 0.1608,-3.88391 3.1702,-14.10469 5.5876,-18.97688 3.0229,-6.09274 6.5366,-10.57365 10.5985,-13.51609 l 3.139,-2.27392 -12.3912,0 c -8.8593,0 -12.3914,0.26132 -12.3914,0.91676 0,0.50421 0.7176,4.69073 1.5948,9.30338 0.877,4.61264 2.0859,12.48405 2.6863,17.49205 0.6004,5.00799 1.1297,8.18261 1.1764,7.0547 z"
               id="path4174-5"
               inkscape:connector-curvature="0" />
            <path
               style="opacity:1;fill:none;fill-opacity:1;stroke:none;stroke-width:6.25;stroke-linecap:round;stroke-linejoin:bevel;stroke-miterlimit:4;stroke-dasharray:none;stroke-dashoffset:0;stroke-opacity:1"
               d="m 1941.6219,-160.17893 c 0.195,-1.81629 0.6732,-4.88538 1.0902,-6.99839 2.9067,-14.72742 9.1318,-25.0517 18.5944,-30.83869 l 1.1838,-0.72402 -13.3959,0 c -8.4777,0 -13.3961,0.0494 -13.3961,0.13454 0,0.0741 0.1216,0.65662 0.2703,1.2947 0.5272,2.26219 1.7086,8.34903 2.3169,11.93767 1.3947,8.22819 2.1538,14.30105 3.1232,24.98424 l 0.1079,1.18972 0.1056,-0.97977 z"
               id="path4176-0"
               inkscape:connector-curvature="0" />
            <path
               style="opacity:1;fill:#ffffff;fill-opacity:1;stroke:#ffffff;stroke-width:1.70388806;stroke-linecap:round;stroke-linejoin:bevel;stroke-miterlimit:4;stroke-dasharray:none;stroke-dashoffset:0;stroke-opacity:1"
               d="m 1941.6219,-160.17893 c 0.195,-1.81629 0.6732,-4.88538 1.0902,-6.99839 2.9067,-14.72742 9.1318,-25.0517 18.5944,-30.83869 l 1.1838,-0.72402 -13.3959,0 c -8.4777,0 -13.3961,0.0494 -13.3961,0.13454 0,0.0741 0.1216,0.65662 0.2703,1.2947 0.5272,2.26219 1.7086,8.34903 2.3169,11.93767 1.3947,8.22819 2.1538,14.30105 3.1232,24.98424 l 0.1079,1.18972 0.1056,-0.97977 z"
               id="path4178-3"
               inkscape:connector-curvature="0" />
            <path
               style="fill:none;fill-rule:evenodd;stroke:#ffffff;stroke-width:1.83085251px;stroke-linecap:butt;stroke-linejoin:miter;stroke-opacity:1"
               d="m 1173.099,-219.30556 c 46.609,15.34316 57.6464,57.23405 62.8625,96.23027"
               id="path4230-3"
               inkscape:connector-curvature="0"
               sodipodi:nodetypes="cc" />
            <path
               style="opacity:1;fill:#ffffff;fill-opacity:1;stroke:#ffffff;stroke-width:0.83980626;stroke-linecap:round;stroke-linejoin:bevel;stroke-miterlimit:4;stroke-dasharray:none;stroke-dashoffset:0;stroke-opacity:1"
               d="m 1226.2811,-169.29132 c -1.5221,-4.34721 -6.2131,-13.47876 -9.4605,-18.41586 -4.1351,-6.28665 -9.9166,-12.90896 -14.8381,-16.99597 -2.0395,-1.69361 -3.5113,-3.14765 -3.2707,-3.2312 0.6927,-0.24056 9.6504,4.01017 19.4014,9.20666 l 8.9579,4.77384 0.078,13.38102 c 0.043,7.35956 0.031,13.38103 -0.027,13.38103 -0.058,0 -0.4361,-0.94479 -0.8403,-2.09952 z"
               id="path4249"
               inkscape:connector-curvature="0" />
            <path
               id="rect4261"
               d="m 1196.0958,-209.9687 5.0387,0 0,2.51942 -5.0387,0 z"
               style="opacity:1;fill:#ffffff;fill-opacity:1;stroke:#ffffff;stroke-width:1.70388806;stroke-linecap:round;stroke-linejoin:bevel;stroke-miterlimit:4;stroke-dasharray:none;stroke-dashoffset:0;stroke-opacity:1"
               inkscape:connector-curvature="0" />
            <path
               id="rect4263"
               d="m 1226.6085,-169.37805 2.5195,0 0,4.47896 -2.5195,0 z"
               style="opacity:1;fill:#ffffff;fill-opacity:1;stroke:#ffffff;stroke-width:1.70388806;stroke-linecap:round;stroke-linejoin:bevel;stroke-miterlimit:4;stroke-dasharray:none;stroke-dashoffset:0;stroke-opacity:1"
               inkscape:connector-curvature="0" />
            <path
               style="fill:none;fill-rule:evenodd;stroke:#ffffff;stroke-width:56.79626846;stroke-linecap:butt;stroke-linejoin:miter;stroke-miterlimit:4;stroke-dasharray:none;stroke-opacity:1"
               d="m 1564.4077,-201.78539 c 214.7118,102.161257 214.7118,102.161257 214.7118,102.161257 C 1567.8708,7.7317678 1567.8708,7.7317678 1567.8708,7.7317678"
               id="path4305-9"
               inkscape:connector-curvature="0" />
            <path
               style="fill:none;fill-rule:evenodd;stroke:#ffffff;stroke-width:45.84934616;stroke-linecap:butt;stroke-linejoin:miter;stroke-miterlimit:4;stroke-dasharray:none;stroke-opacity:1"
               d="M 1504.9849,-229.40211 C 1433.2258,28.379029 1433.2258,28.379029 1433.2258,28.379029"
               id="path4328"
               inkscape:connector-curvature="0" />
          </g>
        </g>
        <g
           id="g4730">
          <path
             sodipodi:nodetypes="csssc"
             inkscape:connector-curvature="0"
             id="path4140"
             d="M 1074.3342,-141.02334 C 1047.4553,7.8154514 893.79842,146.87274 724.04312,189.60712 437.20003,261.81733 377.26452,27.06139 393.0532,-160.34438 c 16.22794,-192.6186 207.84425,-185.24618 316.01933,-185.78252 186.21032,-0.92323 402.06817,11.60913 365.57987,203.14495"
             style="opacity:1;fill:none;fill-opacity:1;stroke:#ffffff;stroke-width:28.39813423;stroke-linecap:round;stroke-linejoin:bevel;stroke-miterlimit:4;stroke-dasharray:none;stroke-dashoffset:0;stroke-opacity:1" />
          <path
             sodipodi:nodetypes="cccccccccccccc"
             inkscape:connector-curvature="0"
             id="rect4162"
             d="m 336.82325,-311.20911 -3.58873,3.48085 c -14.32684,38.61029 -9.62405,72.60619 0,105.40879 l 3.58873,3.48084 72.88231,0 0.3869,-52.39432 61.63624,-56.49531 47.91898,-29.83289 c -54.62321,11.72093 -131.19438,26.24367 -182.82443,26.35204 z m 3.58876,6.96171 124.13921,0 -39.22309,25.46506 -84.91612,72.98203 z"
             style="color:#000000;font-style:normal;font-variant:normal;font-weight:normal;font-stretch:normal;font-size:medium;line-height:normal;font-family:sans-serif;text-indent:0;text-align:start;text-decoration:none;text-decoration-line:none;text-decoration-style:solid;text-decoration-color:#000000;letter-spacing:normal;word-spacing:normal;text-transform:none;direction:ltr;block-progression:tb;writing-mode:lr-tb;baseline-shift:baseline;text-anchor:start;white-space:normal;clip-rule:nonzero;display:inline;overflow:visible;visibility:visible;opacity:1;isolation:auto;mix-blend-mode:normal;color-interpolation:sRGB;color-interpolation-filters:linearRGB;solid-color:#000000;solid-opacity:1;fill:#ffffff;fill-opacity:1;fill-rule:nonzero;stroke:#ffffff;stroke-width:7.0687685;stroke-linecap:round;stroke-linejoin:bevel;stroke-miterlimit:4;stroke-dasharray:none;stroke-dashoffset:0;stroke-opacity:1;color-rendering:auto;image-rendering:auto;shape-rendering:auto;text-rendering:auto;enable-background:accumulate" />
          <path
             inkscape:connector-curvature="0"
             id="path4168"
             d="m 341.15868,-257.14684 0,-49.6085 55.30684,0 55.30685,0 -19.83269,18.86337 c -10.90796,10.37484 -33.41064,30.5195 -50.00605,44.76588 -16.59531,14.24638 -32.55881,28.08169 -35.47404,30.74513 l -5.30091,4.84261 0,-49.60849 z"
             style="opacity:1;fill:#ffffff;fill-opacity:1;stroke:#ffffff;stroke-width:10.06545734;stroke-linecap:round;stroke-linejoin:bevel;stroke-miterlimit:4;stroke-dasharray:none;stroke-dashoffset:0;stroke-opacity:1" />
          <path
             sodipodi:nodetypes="cc"
             inkscape:connector-curvature="0"
             id="path4172"
             d="m 335.04115,-203.22181 c 36.72072,-0.18224 46.75458,29.87577 42.95684,75.60677"
             style="fill:none;fill-rule:evenodd;stroke:#ffffff;stroke-width:1.14939272px;stroke-linecap:butt;stroke-linejoin:miter;stroke-opacity:1" />
          <path
             sodipodi:nodetypes="cc"
             inkscape:connector-curvature="0"
             id="path4230"
             d="m 1147.1375,-218.96903 c -46.6091,15.34316 -57.6464,57.23405 -62.8626,96.23027"
             style="fill:none;fill-rule:evenodd;stroke:#ffffff;stroke-width:1.83085251px;stroke-linecap:butt;stroke-linejoin:miter;stroke-opacity:1" />
          <path
             inkscape:connector-curvature="0"
             id="path4247"
             d="m 1092.6797,-168.81358 c 0.1663,-1.96972 0.3023,-7.56017 0.3023,-12.42321 l 0,-8.8419 5.1767,-3.20215 c 5.8562,-3.6225 18.6722,-10.86244 19.2285,-10.86244 0.2016,0 -2.0196,2.48594 -4.9359,5.52432 -7.6007,7.91885 -14.0092,18.15434 -18.6252,29.74754 l -1.4489,3.63917 0.3025,-3.58133 z"
             style="opacity:1;fill:#ffffff;fill-opacity:1;stroke:#ffffff;stroke-width:0.83980626;stroke-linecap:round;stroke-linejoin:bevel;stroke-miterlimit:4;stroke-dasharray:none;stroke-dashoffset:0;stroke-opacity:1" />
          <path
             inkscape:connector-curvature="0"
             style="opacity:1;fill:#ffffff;fill-opacity:1;stroke:#ffffff;stroke-width:1.70388806;stroke-linecap:round;stroke-linejoin:bevel;stroke-miterlimit:4;stroke-dasharray:none;stroke-dashoffset:0;stroke-opacity:1"
             d="m 1091.1199,-167.97839 1.9596,0 0,3.63917 -1.9596,0 z"
             id="rect4265" />
          <path
             inkscape:connector-curvature="0"
             style="opacity:1;fill:#ffffff;fill-opacity:1;stroke:#ffffff;stroke-width:1.70388806;stroke-linecap:round;stroke-linejoin:bevel;stroke-miterlimit:4;stroke-dasharray:none;stroke-dashoffset:0;stroke-opacity:1"
             d="m 1115.7543,-206.88941 3.6391,0 0,2.79935 -3.6391,0 z"
             id="rect4267" />
          <path
             inkscape:connector-curvature="0"
             id="path4305"
             d="M 805.17954,-204.31336 C 590.46772,-102.1521 590.46772,-102.1521 590.46772,-102.1521 801.71645,5.2037999 801.71645,5.2037999 801.71645,5.2037999"
             style="fill:none;fill-rule:evenodd;stroke:#ffffff;stroke-width:56.79626846;stroke-linecap:butt;stroke-linejoin:miter;stroke-miterlimit:4;stroke-dasharray:none;stroke-opacity:1" />
          <path
             inkscape:connector-curvature="0"
             id="path4721"
             d="m 378.27556,-161.44445 c -0.72186,-6.0857 -3.73547,-15.8415 -6.47692,-20.96739 -2.13241,-3.98713 -4.7965,-7.57741 -7.86814,-10.60358 l -2.74837,-2.70766 11.67312,0 11.67312,0 -0.24064,0.84031 c -1.18984,4.15483 -4.08384,22.12663 -5.03473,31.26562 -0.24506,2.35525 -0.5026,4.33564 -0.57231,4.40087 -0.0697,0.0653 -0.25202,-0.93744 -0.40513,-2.22817 z"
             style="opacity:1;fill:#ffffff;fill-opacity:1;stroke:none;stroke-width:50;stroke-linecap:round;stroke-linejoin:bevel;stroke-miterlimit:4;stroke-dasharray:none;stroke-dashoffset:0;stroke-opacity:1" />
        </g>
      </g>
    </g>
  </g>
</svg>
