<?xml version="1.0" encoding="UTF-8" standalone="no"?>
<svg
   xmlns:dc="http://purl.org/dc/elements/1.1/"
   xmlns:cc="http://creativecommons.org/ns#"
   xmlns:rdf="http://www.w3.org/1999/02/22-rdf-syntax-ns#"
   xmlns:svg="http://www.w3.org/2000/svg"
   xmlns="http://www.w3.org/2000/svg"
   id="svg3481"
   preserveAspectRatio="xMidYMid meet"
   viewBox="0 0 819.13135 819.19995"
   height="819.19995pt"
   width="819.13135pt"
   version="1.0">
  <defs
     id="defs3491" />
  <metadata
     id="metadata3483">
Created by potrace 1.10, written by Peter Selinger 2001-2011
<rdf:RDF>
  <cc:Work
     rdf:about="">
    <dc:format>image/svg+xml</dc:format>
    <dc:type
       rdf:resource="http://purl.org/dc/dcmitype/StillImage" />
    <dc:title></dc:title>
  </cc:Work>
</rdf:RDF>
</metadata>
  <g
     style="fill:#808080;stroke:none"
     id="g3485"
     transform="matrix(0.09152561,0,0,-0.09152561,-1.3042399,820.57286)">
    <path
       style="fill:#808080"
       id="path3487"
       d="m 4170,8964 c -25,-2 -106,-10 -180,-19 -130,-15 -187,-25 -350,-59 -41,-9 -84,-16 -95,-16 -11,0 -40,-6 -65,-14 -25,-8 -74,-22 -110,-32 -117,-30 -174,-47 -245,-71 -157,-54 -212,-73 -245,-86 -33,-13 -48,-19 -130,-55 -19,-8 -48,-21 -65,-28 -110,-46 -377,-184 -496,-256 -38,-24 -78,-48 -87,-53 -285,-170 -708,-527 -957,-809 -39,-44 -75,-84 -81,-90 -75,-76 -369,-494 -444,-631 -18,-33 -52,-94 -75,-135 -23,-41 -53,-100 -68,-130 -14,-30 -46,-99 -71,-153 -26,-54 -53,-115 -60,-135 -8,-20 -25,-68 -39,-107 -15,-38 -36,-95 -47,-125 -24,-64 -53,-152 -76,-230 -8,-30 -21,-75 -29,-100 C 110,5476 67,5252 33,4995 8,4808 8,4152 33,3965 c 42,-319 76,-480 163,-765 14,-47 29,-98 34,-115 5,-16 18,-55 29,-85 12,-30 33,-89 48,-130 14,-41 36,-97 49,-125 12,-27 35,-79 51,-115 30,-69 149,-305 179,-357 342,-577 686,-970 1194,-1365 35,-27 81,-60 213,-151 183,-126 486,-294 681,-377 54,-23 106,-45 115,-50 86,-44 460,-165 631,-205 41,-10 95,-24 119,-31 25,-8 57,-14 73,-14 16,0 57,-6 91,-14 197,-46 272,-51 782,-51 509,0 595,5 792,51 34,8 74,14 88,14 14,0 53,7 88,16 34,8 89,22 122,30 81,20 162,43 210,60 23,8 47,14 55,14 18,0 316,108 361,130 9,5 61,27 115,50 259,110 641,334 864,506 194,150 292,238 524,470 300,301 494,557 702,924 71,126 224,440 224,459 0,5 12,35 26,67 29,66 41,99 89,244 56,170 62,190 110,375 7,28 21,86 30,130 9,44 23,107 30,140 45,204 49,261 49,785 0,524 -4,585 -49,785 -7,33 -21,98 -30,145 -10,47 -23,105 -30,130 -7,25 -20,74 -30,110 -28,104 -98,323 -134,415 -10,28 -31,81 -45,119 -126,327 -394,788 -625,1076 -138,172 -428,467 -656,669 -59,52 -296,230 -375,282 -148,97 -229,149 -234,149 -3,0 -38,19 -78,43 -133,78 -390,197 -593,274 -22,9 -49,19 -60,24 -11,5 -69,24 -130,44 -60,19 -123,39 -140,45 -26,8 -225,61 -280,74 -11,3 -60,12 -110,21 -49,9 -124,22 -165,30 -146,27 -388,45 -685,49 -165,2 -320,2 -345,0 z M 2955,7055 c 22,-8 47,-15 55,-15 27,0 123,-71 196,-144 118,-119 163,-222 164,-378 1,-265 -166,-503 -401,-572 -77,-23 -270,-22 -340,3 -98,33 -173,78 -232,138 -66,67 -102,127 -136,226 -29,87 -33,265 -7,349 60,191 201,336 379,388 79,23 263,26 322,5 z M 5995,5570 c 272,-22 515,-138 686,-325 93,-102 183,-265 235,-424 17,-51 31,-131 42,-241 14,-143 17,-305 17,-1210 l 0,-1045 -475,0 -475,0 -6,800 c -7,982 -20,1178 -83,1299 -27,54 -137,169 -198,208 -64,42 -120,57 -238,64 -102,7 -222,-11 -290,-44 -104,-49 -231,-187 -282,-307 -43,-101 -46,-154 -53,-970 -6,-850 -10,-1034 -23,-1047 -4,-4 -213,-7 -463,-6 l -454,3 -3,1575 c -2,1472 -1,1576 15,1588 13,9 120,12 452,12 390,0 436,-2 453,-17 16,-14 18,-34 18,-195 0,-126 3,-178 11,-178 7,0 62,48 123,108 172,166 271,236 411,289 114,43 166,55 285,63 158,10 176,10 295,0 z m -2718,-78 c 10,-6 13,-336 13,-1573 0,-860 0,-1572 0,-1582 0,-16 -28,-17 -482,-15 l -483,3 -3,1574 c -1,1155 1,1577 9,1587 9,11 96,14 473,14 253,0 467,-4 473,-8 z" />
  </g>
</svg>
