<?xml version="1.0" encoding="UTF-8" standalone="no"?>
<svg
   xmlns:dc="http://purl.org/dc/elements/1.1/"
   xmlns:cc="http://creativecommons.org/ns#"
   xmlns:rdf="http://www.w3.org/1999/02/22-rdf-syntax-ns#"
   xmlns:svg="http://www.w3.org/2000/svg"
   xmlns="http://www.w3.org/2000/svg"
   id="svg3388"
   preserveAspectRatio="xMidYMid meet"
   viewBox="0 0 819.20001 819.01965"
   height="819.01965pt"
   width="819.20001pt"
   version="1.0">
  <defs
     id="defs3398" />
  <metadata
     id="metadata3390">
Created by potrace 1.10, written by Peter Selinger 2001-2011
<rdf:RDF>
  <cc:Work
     rdf:about="">
    <dc:format>image/svg+xml</dc:format>
    <dc:type
       rdf:resource="http://purl.org/dc/dcmitype/StillImage" />
    <dc:title></dc:title>
  </cc:Work>
</rdf:RDF>
</metadata>
  <g
     style="fill:#000000;stroke:none"
     id="g3392"
     transform="matrix(0.11231044,0,0,-0.11231044,-59.286958,863.44898)">
    <path
       style="fill:#808080"
       id="path3394"
       d="m 3807.3751,7672.725 c -292.4466,-33.5001 -515.1769,-81.4867 -774.1234,-165.6896 -29.8784,-9.0541 -76.9597,-26.2568 -104.1218,-36.2163 -27.1623,-10.8649 -59.757,-22.6352 -72.4326,-27.1622 -26.2569,-8.1487 -61.5677,-22.6352 -113.176,-45.2704 -19.9189,-9.054 -60.6623,-27.1622 -90.5408,-40.7433 -29.8784,-12.6757 -60.6623,-27.1622 -67.9055,-30.7839 -7.2433,-3.6216 -47.9867,-24.446 -90.5408,-46.1758 -42.5542,-21.7297 -102.311,-55.2299 -134.0003,-74.2434 -30.7838,-19.0135 -57.946,-34.4055 -60.6623,-34.4055 -1.8108,0 -20.8244,-11.7703 -42.5541,-26.2568 -21.7298,-13.5811 -69.7164,-45.2704 -106.8381,-68.8109 -304.217,-196.4735 -655.515,-528.7581 -897.2589,-851.0831 -75.1488,-99.5949 -184.7031,-262.5682 -203.7167,-303.3116 -3.6216,-7.2432 -15.3919,-28.0676 -26.2568,-45.2703 C 981.59826,5809.3963 899.20617,5652.7608 860.27365,5564.9363 796.89512,5423.6927 785.12482,5396.5305 774.25994,5361.2196 769.7329,5348.5439 757.9626,5315.9492 747.09772,5288.787 691.86785,5143.9218 632.11096,4931.151 598.61088,4759.1235 517.1242,4338.1091 505.3539,3896.2703 566.92162,3509.6612 c 6.33785,-34.4055 13.58111,-86.0137 18.10814,-113.176 9.95949,-73.3379 52.51364,-253.5141 80.58128,-348.5819 10.86489,-34.4054 22.63518,-77.865 27.16222,-95.0677 11.7703,-47.0812 57.94608,-178.3653 85.10831,-239.0276 12.6757,-28.973 23.54059,-56.1352 23.54059,-60.6623 0,-12.6757 151.20306,-329.5683 181.08151,-379.3657 4.52704,-7.2434 31.68923,-52.5137 59.75693,-99.5949 88.7299,-151.203 241.7438,-364.8792 355.8251,-497.9742 57.9461,-67.0001 303.3115,-315.0817 381.1766,-384.7981 102.311,-91.4462 436.4064,-339.52783 457.2308,-339.52783 1.8108,0 19.0135,-10.8649 38.0271,-23.5406 19.0136,-12.67571 42.5542,-27.16222 52.5136,-31.68926 9.9595,-4.52704 42.5542,-22.63519 72.4326,-39.83793 93.257,-54.32446 306.0278,-156.63551 425.5416,-203.71669 103.2165,-40.74334 129.4733,-50.70283 185.6085,-68.81097 27.1622,-8.14867 64.284,-19.91898 81.4867,-26.25682 29.8784,-10.86489 86.9191,-27.16223 194.6626,-55.22987 466.2849,-119.51379 1096.4485,-142.14897 1521.0846,-52.51363 35.3109,7.24326 71.5272,12.6757 80.5813,12.6757 9.9595,0 38.0271,5.43245 63.3785,12.67571 25.3514,7.24326 76.9597,19.91896 114.0814,28.06763 74.2434,17.20275 100.5002,24.446 248.9871,73.33801 1092.8268,354.91975 1971.0721,1233.16505 2325.9919,2325.99195 48.892,148.4868 56.1352,174.7436 73.338,248.987 8.1487,37.1218 20.8244,88.7299 28.0676,114.0814 7.2433,25.3514 12.6757,53.4191 12.6757,63.3785 0,9.054 5.4324,46.1758 12.6758,80.5812 72.4325,344.9603 72.4325,865.5697 0,1272.0977 -28.0677,156.6355 -76.9597,358.5413 -107.7435,443.6496 -6.3379,17.2028 -18.1082,54.3245 -26.2569,81.4867 -18.1081,56.1353 -28.0676,82.3921 -68.811,185.6086 -47.0812,119.5138 -149.3922,332.2845 -203.7166,425.5415 -17.2028,29.8785 -35.311,62.4731 -39.838,72.4326 -4.5271,9.9595 -19.0135,33.5001 -31.6892,52.5136 -12.6758,19.0136 -23.5406,36.2163 -23.5406,38.0272 0,10.8648 -153.9194,229.0681 -223.6357,316.8926 -95.9732,120.4192 -120.4192,148.4868 -265.2844,296.9736 -217.2978,223.6357 -475.3389,428.2578 -733.3801,580.3663 -47.0812,28.0676 -92.3516,55.2298 -99.5948,59.7568 -48.892,28.9731 -365.7846,181.0816 -379.3657,181.0816 -4.5271,0 -31.6893,10.8648 -60.6624,23.5405 -60.6623,26.2568 -182.8923,69.7165 -257.1357,90.5408 -27.1622,8.1486 -69.7164,19.919 -95.0678,27.1622 -43.4595,12.6757 -96.8786,26.2568 -221.8248,54.3245 -32.5947,8.1486 -81.4867,17.2027 -108.649,20.8243 -27.1622,4.5271 -77.865,11.7704 -113.1759,18.1082 -248.0816,38.9325 -662.7583,48.892 -900.8805,21.7298 z M 5073.1349,5488.882 c 67.0001,-9.9595 177.4598,-62.4731 279.7709,-133.0948 96.8785,-67.0002 121.3246,-76.9597 153.0139,-67.0002 14.4865,5.4325 71.5271,23.5406 125.8516,41.6488 55.2298,18.1081 133.0949,48.892 174.7436,67.9055 108.6489,50.7028 121.3246,46.1758 78.7705,-28.973 -12.6757,-21.7298 -25.3514,-46.1758 -28.9731,-53.4191 -9.9594,-21.7297 -84.2029,-118.6084 -126.757,-164.7841 -37.1217,-40.7434 -48.892,-72.4327 -30.7838,-83.2976 10.8648,-7.2432 78.7704,10.8649 190.1355,48.892 92.3515,30.7839 114.0814,28.0677 92.3515,-11.7702 -16.2973,-30.7839 -42.5541,-59.757 -162.9733,-183.7978 -146.676,-149.3922 -151.203,-156.6355 -156.6355,-279.7709 -9.054,-168.4058 -62.4731,-445.4605 -117.703,-606.623 -4.527,-14.4865 -12.6757,-38.9326 -16.2973,-54.3245 -40.7433,-143.0543 -143.0544,-341.3386 -272.5276,-526.0418 -142.149,-202.8112 -361.2576,-421.9198 -543.2445,-542.339 -121.3246,-81.4867 -347.6766,-194.6627 -387.5145,-194.6627 -8.1487,0 -19.0135,-3.6216 -23.5405,-7.2432 -8.1488,-7.2433 -73.3381,-28.0677 -190.1357,-60.6623 -49.7974,-14.4865 -154.8246,-33.5001 -280.6763,-51.6083 -105.9326,-15.3919 -390.2307,-15.3919 -511.5553,0 -252.6086,32.5947 -477.1497,102.3111 -728.8529,229.0681 -86.9192,44.365 -107.7435,58.8516 -100.5003,69.7164 2.7162,5.4325 48.892,11.7703 102.311,14.4865 268.9061,16.2973 404.7172,38.9325 550.4878,94.1624 132.1895,48.892 332.2846,158.4463 337.717,183.7978 0.9054,8.1486 -17.2028,19.0135 -54.3245,29.8784 -31.6892,9.9595 -68.8109,22.6352 -84.2029,28.9731 -14.4864,5.4323 -45.2704,18.1081 -67.9055,27.1622 -22.6352,9.0541 -57.9461,27.1622 -79.6759,41.6487 -21.7298,13.5811 -40.7433,25.3515 -43.4595,25.3515 -19.919,0 -163.8788,130.3786 -211.8654,191.9463 -32.5946,42.5542 -73.338,134.0004 -70.6218,159.3517 l 2.7163,24.446 117.7029,2.7163 c 118.6084,2.7162 153.0139,10.8648 112.2705,28.973 -171.1219,73.338 -343.1494,220.014 -418.2982,354.9198 -22.6352,41.6487 -33.5001,68.811 -74.2434,197.3788 -7.2433,22.6352 -15.392,66.0947 -19.0136,97.784 l -6.3379,56.1352 30.7839,0 c 17.2027,0 63.3785,-12.6757 103.2164,-27.1622 77.8651,-28.973 140.3383,-35.3109 140.3383,-14.4864 0,6.3378 -28.0677,44.3649 -61.5677,83.2974 -58.8515,67.9056 -100.5003,130.3787 -128.568,189.2302 -76.0542,163.8787 -87.8245,366.6901 -29.8784,552.2986 18.1082,57.0406 40.7434,115.8921 48.892,124.9462 2.7162,4.527 64.284,-49.7974 135.8112,-119.5138 181.9869,-176.5545 297.879,-268.0006 483.4875,-377.555 57.0408,-33.5 197.3789,-102.311 229.9736,-112.2705 12.6757,-4.527 46.1758,-16.2973 73.338,-27.1622 99.5948,-38.0271 215.4869,-70.6218 339.5278,-94.1623 103.2164,-19.0136 230.8789,-35.311 237.2167,-29.8785 2.7163,2.7162 5.4325,76.0542 7.2433,162.0679 1.8108,129.4733 5.4325,165.6896 20.8244,210.96 56.1353,166.595 138.5273,282.4872 267.0952,377.5549 103.2164,76.9597 202.8113,122.23 291.5412,134.0003 68.811,9.9595 237.2168,9.9595 301.5008,0.9054 z" />
  </g>
</svg>
