<?xml version="1.0" standalone="no"?>
<!DOCTYPE svg PUBLIC "-//W3C//DTD SVG 1.1//EN" "http://www.w3.org/Graphics/SVG/1.1/DTD/svg11.dtd" >
<svg xmlns="http://www.w3.org/2000/svg">
<metadata></metadata>
<defs>
<font id="mocha_mattariregular" horiz-adv-x="811" >
<font-face units-per-em="2048" ascent="1638" descent="-410" />
<missing-glyph horiz-adv-x="307" />
<glyph horiz-adv-x="2048" />
<glyph horiz-adv-x="2048" />
<glyph unicode="&#xd;" horiz-adv-x="2048" />
<glyph unicode=" "  horiz-adv-x="307" />
<glyph unicode="&#x09;" horiz-adv-x="307" />
<glyph unicode="&#xa0;" horiz-adv-x="307" />
<glyph unicode="!" horiz-adv-x="389" d="M139 193q5 0 31.5 3t38.5 3q54 0 74 -13.5t20 -48.5v-19v-20.5v-19.5t-1.5 -20t-3.5 -17.5t-5.5 -15.5t-8.5 -12t-12 -8.5t-16 -2.5q-11 0 -60 -7.5t-69 1.5q-13 3 -23 17.5t-10 27.5q0 12 -2 34.5t-2 40.5t4 34q4 18 17.5 29.5t27.5 13.5zM160 82q0 -8 14 -8q8 0 8 8 q0 10 -12 10q-4 0 -5.5 -0.5t-3 -2.5t-1.5 -7zM117 356q0 36 -7.5 100t-7.5 97q0 17 2 53.5t2 55.5q0 13 -2.5 75.5t-3.5 149.5q-1 75 -5.5 181.5t-5 155t4.5 167.5q1 18 13 30.5t26 14.5q33 2 68.5 -5.5t52.5 -7.5q43 0 43 -73q0 -7 1.5 -118t-1.5 -118q0 -9 -1 -24t-1 -23 q0 -19 3 -55.5t3 -55.5q0 -126 -10 -241q0 -2 -5 -30t-5 -50q0 -19 3 -51t3 -52q0 -22 -3 -78t-3 -81q0 -43 -19 -52.5t-88 -9.5q-57 0 -57 45z" />
<glyph unicode="," horiz-adv-x="380" d="M139 -162q3 18 15 58.5t12 60.5q0 18 -11 28.5t-24 15.5t-24 22t-11 47q0 16 1 38.5t1 24.5q0 1 -1 12t-1 15q0 20 11.5 32.5t29.5 14.5q34 4 105 0q21 -1 33 -18t12 -37q0 -22 -3 -68.5t-3 -67.5q0 -20 -9 -45.5t-25 -62.5t-24 -60q-12 -31 -25.5 -40t-33.5 -3 q-28 8 -25 33z" />
<glyph unicode="-" horiz-adv-x="552" d="M406 813q59 0 63 -37q5 -10 0.5 -52t-4.5 -52q0 -22 -11.5 -34.5t-29.5 -12.5t-43.5 -2t-40.5 -2q-26 0 -75.5 -1.5t-86.5 -1.5q-97 0 -104 58q-6 46 0 92q2 18 12 28.5t27 10.5q30 0 87.5 -1t84.5 -1q24 0 62.5 4t58.5 4z" />
<glyph unicode="." horiz-adv-x="380" d="M285 168q0 -14 2 -43.5t2 -44.5q0 -35 -8 -53.5t-35 -22.5q-36 -3 -46 -3.5t-31.5 2.5t-27.5 3q-32 4 -43 45q-4 16 -5 32t0 42.5t1 32.5q0 23 13 37t32 16q17 1 49.5 -1.5t44.5 -2.5q24 0 38 -12.5t14 -26.5z" />
<glyph unicode="0" d="M291 1075q-8 -169 0 -227q2 -17 0 -50t0 -48q6 -22 2 -104.5t-2 -113.5q2 -36 -2 -109.5t2 -92.5q12 -77 37 -108.5t78 -31.5q55 0 81.5 32t32.5 108q6 59 2.5 180t-0.5 182q4 113 -2 154q-8 24 -3.5 114.5t3.5 114.5q-1 75 -29.5 108.5t-84.5 33.5q-41 0 -76.5 -36 t-38.5 -106zM399 1450q83 0 195 -49q50 -21 82.5 -59.5t47 -91t19.5 -99t5 -107.5q0 -19 1 -56.5t1 -63.5t-2 -39q-2 -15 0 -93.5t0 -91.5q-9 -65 -9 -79q0 -4 2 -21.5t4 -65.5t3 -124q0 -54 -3.5 -86.5t-10.5 -59t-9 -39.5q0 -1 -1.5 -12t-4 -18.5t-8 -22.5t-16.5 -35 t-27 -45q-29 -44 -108.5 -75t-147.5 -31q-62 0 -110 26t-81 29q-29 3 -61.5 36.5t-50.5 69.5q-17 31 -26 74t-10 72t-1 82q0 33 -2.5 79t-2.5 83t5 79q13 97 0 136q-4 15 -4.5 34t1.5 48t1 51q0 3 -1.5 44.5t-2 59.5t0.5 60t5 86q10 94 26 120q3 3 15.5 30.5t17.5 35.5 q40 64 114.5 96.5t153.5 32.5zM573 410q0 -9 11 -9q8 0 8 9q0 8 -8 8q-11 0 -11 -8zM618 631q0 -17 25 -17q19 0 19 15q0 5 -6 10.5t-13 5.5q-25 0 -25 -14z" />
<glyph unicode="1" d="M403 307q0 21 -5 64t-5 67q0 116 8 346q0 12 1 29.5t1 24.5q0 25 -1 74.5t-1 72.5q0 6 -2 28.5t-2 28.5q-3 39 -30.5 48.5t-126.5 9.5q-6 0 -20 -0.5t-21 0t-18 1t-16.5 3t-12.5 6.5t-10.5 11t-4.5 16q-3 22 1.5 45.5t4.5 34.5q0 45 84 51q51 2 111 18q47 12 64.5 34 t31.5 69q7 26 27.5 35.5t70.5 9.5q52 0 67 -11t15 -55q0 -12 -7 -38t-7 -40q0 -11 7 -30.5t7 -34.5q0 -27 -2 -85.5t-2 -92.5q0 -37 2 -101.5t2 -101.5q0 -52 -3 -159.5t-3 -158.5q0 -38 1 -113t1 -110v-98q0 -19 -7 -52.5t-7 -41.5q0 -10 2 -27.5t2 -26.5q0 -38 -25 -49.5 t-114 -11.5q-34 0 -49 14t-15 45q0 54 3 152.5t3 99.5zM539 84q0 -8 3 -11t13 -3q12 0 12 20q0 14 -12 14q-6 0 -11 -5.5t-5 -14.5z" />
<glyph unicode="2" d="M551 2q-45 -4 -152 -4q-23 0 -68 3t-70.5 3.5t-74.5 -4.5q-108 -16 -108 63q0 5 1 23.5t1 28.5q0 12 -1 38t-1 40q0 80 40.5 165.5t100.5 145.5q3 3 27 26.5t34.5 34.5t27.5 31.5t28 38.5q32 53 106 123q29 29 43 63q52 121 52 211q0 32 -1.5 56t-9 55.5t-20.5 51.5 t-37.5 34t-58.5 14q-23 0 -39 -3t-27 -11t-16.5 -13.5t-14.5 -19.5t-14 -20q-5 -7 -9 -15.5t-7 -15.5t-4.5 -19.5t-2.5 -20t-1.5 -24t-0.5 -24.5v-28.5v-29.5q0 -59 -77 -59h-8q-22 0 -34.5 1t-31.5 4.5t-29.5 14t-13.5 27.5q-11 71 10 209q13 86 68 146t133 75 q16 3 52.5 18t84.5 15q60 0 156 -39q50 -20 90 -64t55 -96q29 -91 29 -209q0 -66 -19.5 -130t-60.5 -129t-75.5 -110t-92.5 -114q-3 -3 -28.5 -23t-32.5 -30q-35 -55 -52 -76q-34 -34 -61 -70q-3 -5 -13 -19t-13.5 -20t-9 -18t-7.5 -24t-2 -27q0 -45 13.5 -58.5t72.5 -13.5 q34 0 85 3t81 3q11 0 44 -4t48 -4q8 0 26.5 1t26.5 1q14 0 24.5 -15t10.5 -30q0 -12 2.5 -43.5t1.5 -48.5q-3 -45 -65 -45q-12 0 -50.5 3t-60.5 1zM387 1288q0 -10 16 -10q7 0 7 10q0 6 -1 7t-6 1t-8.5 -1.5t-5.5 -3.5t-2 -3z" />
<glyph unicode="3" d="M78 209q-2 10 -7 29.5t-8.5 35.5t-3.5 31q-1 11 1.5 30.5t2.5 20.5q1 24 4 39t14.5 29t31.5 18q43 9 80 9q21 0 34.5 -7t20 -22.5t8.5 -27t4 -34.5q0 -1 -1.5 -18t-1 -33.5t4.5 -29.5q14 -52 49 -77.5t82 -25.5q57 0 96 32t39 109q0 24 3.5 67.5t3.5 80t-7 70.5 q-9 48 -28.5 75t-63.5 27q-14 0 -42 4t-44 4q-51 0 -51 49q0 14 3 44t3 50q0 17 13 32.5t34 15.5q60 0 92 12q28 12 46.5 29.5t26 40.5t9.5 40.5t2 42.5q0 24 3.5 59.5t2.5 59t-10 49.5q-12 35 -42 59.5t-76 24.5q-95 0 -132 -82q-7 -18 -6.5 -57t-8 -65t-38.5 -33 q-7 -2 -16.5 -2t-28 1t-33.5 1q-18 0 -30 3t-25 12.5t-18.5 32t-3.5 56.5q11 158 102 245t254 87q41 0 69 -5t43.5 -14t26 -18.5t24.5 -21.5t31 -19q10 -4 19.5 -9.5t17.5 -13.5l14 -14t12.5 -17t10.5 -16.5t9.5 -18t7 -16.5t7 -16.5t5.5 -13.5q13 -25 19 -59.5t6.5 -55 t0.5 -63.5q0 -44 -1 -65.5t-10.5 -55t-28.5 -57.5q-7 -9 -10 -27t-15 -35q-10 -14 -24.5 -26.5t-21.5 -21.5t-7 -25q0 -18 8.5 -29t26 -27t30.5 -37q53 -86 53 -202q0 -13 -1 -71.5t-1 -64.5q0 -13 -5 -28t-10.5 -27.5t-6.5 -15.5q-3 -13 -7 -41.5t-9 -44.5 q-33 -79 -108 -125.5t-173 -46.5q-18 0 -119 14q-93 11 -146.5 64t-80.5 143zM643 264q0 -10 10 -10q7 0 9 0.5t3 2.5t1 7q0 8 -13 8q-10 0 -10 -8zM575 481q0 -6 15 -6q6 0 7 0.5t1 5.5q0 11 -8 11h-12q-3 -3 -3 -11z" />
<glyph unicode="4" d="M420 268q-47 3 -177 -2t-171 6q-17 4 -33 23t-16 49q0 88 12 127q22 64 50.5 131t66.5 150.5t57 126.5q2 6 19 40t24 58q17 54 59.5 145t53.5 119q5 15 20.5 42t20.5 38q4 10 10 29.5t10 29.5q22 58 72 58q12 0 41 1.5t51.5 1t42.5 -4.5q13 -2 22.5 -7.5t15.5 -15 t9.5 -17t4.5 -22t1.5 -22t0 -24.5t-0.5 -23q0 -154 -10 -281q-4 -53 -1.5 -156.5t-0.5 -115.5q-2 -22 -0.5 -38t4 -74.5t2.5 -119.5q0 -42 9.5 -54.5t47.5 -12.5q44 0 41 -43q-1 -16 1.5 -45t2.5 -48q0 -36 -47 -36q-37 0 -46 -14.5t-9 -61.5q-2 -20 -2 -41.5t1 -49.5t1 -46 q0 -34 -11.5 -48t-45.5 -14q-10 0 -30 -6t-30 -6q-92 0 -92 96v137q1 21 -10.5 30t-40.5 11zM252 494q0 -22 2 -28t17 -10.5t53 -4.5q15 0 48.5 1t51.5 1q33 0 43 11t10 50q0 5 -3 33.5t-3 70.5q0 20 2 57.5t2 55.5q0 22 -2 72t-2 74q0 11 -8.5 18.5t-22.5 7.5 q-26 0 -45 -51q-19 -49 -59.5 -130t-59.5 -128q-24 -66 -24 -100zM152 641q0 -10 14 -10q6 0 6 10q0 8 -12 8q-8 0 -8 -8z" />
<glyph unicode="5" d="M406 -18q-82 -5 -162.5 37.5t-122.5 113.5q-39 62 -39 232q0 42 15 59.5t59 21.5q30 3 52.5 2.5t36 -12.5t13.5 -37q0 -58 35 -161q21 -66 115 -66q46 0 82.5 17.5t39.5 56.5q3 43 11 57.5t8 22.5t-5 26t-5 21q-3 16 -3.5 29.5t0.5 33.5t1 31q0 29 1 86t1 84 q0 72 -30.5 117t-96.5 45q-52 0 -91.5 -34.5t-44.5 -72.5q-8 -52 -30 -66t-99 -14q-53 0 -61 47q-3 27 -2 40.5t3.5 63.5t2.5 99q0 9 7 42.5t7 64.5q0 21 -1 64t-1 63q0 13 5.5 76.5t5.5 158.5q0 20 4 36t13.5 27t18.5 19.5t27 13l30 7.5t36 4t37 1t40.5 -0.5t40.5 -0.5 q17 0 44.5 -5.5t41.5 -5.5q16 0 46 5.5t75 5.5q97 0 122.5 -11.5t25.5 -60.5l1 -18q0 -19 -0.5 -27.5t-3 -26t-7.5 -27.5t-15 -19t-24 -11q-25 -4 -130.5 -5t-166.5 -7q-71 -7 -60 -70q5 -5 1.5 -47.5t-3.5 -67.5v-10v-10t-0.5 -9.5t-0.5 -9v-8.5q-1 -21 -1 -29.5t2.5 -20 t8.5 -8t18 4.5q3 2 16.5 9.5t25.5 12.5t30 11.5t41.5 10t50.5 3.5q77 0 134 -42t85 -118q28 -71 33 -127q5 -62 1.5 -129t-1.5 -90q12 -110 -7 -192q-37 -153 -111 -230t-226 -77zM674 725q0 -14 12 -14q4 0 8 3.5t4 6.5q0 10 -12 10t-12 -6z" />
<glyph unicode="6" d="M61 481q0 26 -7 81t-7 77q0 40 7 106t7 105q0 14 -2.5 69.5t0.5 73.5q7 112 11 156q5 53 25 103t56.5 95.5t98.5 73t141 27.5q105 0 191.5 -50t142.5 -143q31 -51 31 -147q5 -70 -51 -70q-18 0 -40 -5t-36 -5q-23 0 -36.5 5t-20.5 17.5t-9.5 22.5t-5 32t-4.5 34 q-20 102 -127 102q-41 0 -70 -14t-43.5 -33.5t-22.5 -54t-9.5 -59t-1.5 -66.5q0 -6 -1.5 -18.5t-1.5 -24t3 -23.5q3 0 1 -30l-1 -29q-2 -42 7.5 -51t37.5 10q29 23 79 43t105 20q121 0 185 -76.5t67 -203.5q1 -42 -1.5 -124.5t1.5 -105.5q6 -92 -19 -168 q-11 -32 -16.5 -46.5t-16 -39t-20 -37.5t-24 -29.5t-32.5 -28.5t-42 -23q-99 -45 -187 -45q-75 0 -113.5 15t-84.5 58q-11 10 -40 27.5t-42 36.5q-64 93 -64 262q0 18 1 51t1 47zM272 348q0 -91 29.5 -131.5t108.5 -40.5q24 0 44 8t28.5 14.5t29.5 24.5q33 28 33 215 q0 11 0.5 42t0.5 48t-2 47t-7 48t-14.5 40.5t-23.5 35t-36.5 21.5t-50.5 9q-51 0 -92 -38t-41 -87q0 -46 -3.5 -145t-3.5 -111zM623 1092q0 -2 -0.5 -6t-0.5 -6.5v-5t1.5 -4t3.5 -1.5q14 0 14 25q0 3 1 7l1.5 6t-1 3.5t-5.5 1.5q-14 0 -14 -20z" />
<glyph unicode="7" d="M274 2q-28 0 -41.5 14.5t-13.5 49.5q0 8 1 18.5t4 24.5t6 26t8 31t9 32t10.5 36t11 36t12.5 39l12 39q4 11 12.5 36t13.5 43t7 34q2 21 21.5 63.5t23.5 61.5q13 52 31.5 116.5t23.5 85.5q6 24 32.5 103t35.5 133q5 29 13.5 73.5t10.5 53.5q9 45 -9 62.5t-71 13.5 q-17 -2 -106.5 2.5t-118.5 1.5h-82q-28 0 -43.5 12.5t-15.5 46.5q0 9 -5.5 32t-3.5 44q5 37 20.5 51t59.5 17q66 4 103 -2q25 -4 50.5 -4.5t37 0t42 3.5t34.5 3q58 4 87.5 0.5t54.5 -9.5t30 -6q3 0 17 4.5t37 8.5t48 4q76 0 76 -62q0 -11 1 -38t0.5 -47.5t-3.5 -39.5 q-4 -38 -27.5 -120t-30.5 -119q-10 -53 -41.5 -152.5t-42.5 -148.5q-5 -27 -28.5 -64t-28.5 -53q-8 -25 -6.5 -57t-5.5 -62q-50 -186 -82 -289q-3 -13 -13 -61.5t-20 -73.5q-6 -16 -11.5 -24.5t-19 -16.5t-32.5 -8q-18 0 -49 1t-46 1zM506 612q0 -8 12 -8t12 10 q0 2 -4.5 4.5t-7.5 2.5q-12 0 -12 -9z" />
<glyph unicode="8" d="M160 764q0 17 -11 32.5t-25 29.5t-30.5 46.5t-25.5 75.5q-15 79 -15 189q0 94 55.5 176t141.5 100q8 2 29.5 11.5t54.5 16.5t80 7q149 0 254 -105q10 -9 17 -20t10 -19.5t7 -23t7 -23.5q45 -100 45 -155v-36v-40.5t-1.5 -36t-5 -41.5t-9.5 -36t-15 -38q-13 -25 -45.5 -62 t-32.5 -62q0 -22 30.5 -60t37.5 -53q28 -62 40 -136t1 -134q-5 -26 -9.5 -74t-13 -84t-26.5 -70q-61 -109 -144 -121q-13 -2 -60.5 -18t-94.5 -16q-120 0 -220 68.5t-125 183.5q-12 56 -12 266q0 94 55 176q5 8 20.5 24t25.5 31t10 31zM266 297q16 -119 131 -119 q59 0 98.5 33.5t43.5 95.5q0 2 -2.5 16.5t-4.5 34.5t-2 35q0 7 1.5 40t0.5 52.5t-6 49.5t-18 52t-35 38q-5 5 -25.5 10.5t-41.5 5.5q-60 0 -100 -50.5t-40 -137.5q0 -17 -1.5 -50.5t-1.5 -60t3 -45.5zM258 1096q0 -9 -0.5 -38t-0.5 -45.5t2.5 -43t8 -43t17 -32t28.5 -22.5 q8 -3 24.5 -11.5t31 -13.5t30.5 -5q35 0 61 10.5t41 33t24 43t13 56.5t4.5 56.5t0.5 58.5v12q0 67 -16.5 105.5t-69.5 54.5q-61 17 -123 -19q-76 -48 -76 -157zM252 104q-6 -22 12 -22q8 0 8 22q0 21 -6 21q-10 0 -14 -21z" />
<glyph unicode="9" d="M135 111q-33 46 -45 82t-12 100q0 35 16.5 53.5t59.5 18.5q8 0 23.5 6t27.5 6q64 0 67 -96q3 -52 37 -86q5 -4 11.5 -7t11 -4.5t13.5 -2.5t12.5 -1h15.5h14q66 0 99.5 46t33.5 122q0 14 3.5 50.5t4.5 60.5t-4 63q-1 3 -2 9.5t-1.5 10t-2 9.5t-3 9.5t-3.5 7.5t-4.5 5.5 t-5.5 1.5q-11 0 -28 -11.5t-35.5 -25t-56.5 -25t-87 -11.5q-57 0 -101.5 24.5t-71.5 64.5t-44 93t-22.5 107t-2.5 110q4 89 0 117q-2 19 6 108q6 51 21.5 99.5t50 95.5t82.5 63q22 8 51 25.5t59.5 28t77.5 10.5q136 0 218.5 -70.5t103.5 -173.5q18 -135 18 -160 q0 -28 -3 -63t-3 -61q0 -11 6 -69t4 -93q-4 -78 -1.5 -130.5t1.5 -64.5q-4 -44 -3.5 -131.5t-0.5 -109.5q-3 -36 -10.5 -67t-14 -46.5t-18.5 -38t-14 -27.5q-28 -60 -63 -89.5t-101 -53.5q-40 -16 -104 -16q-124 0 -207 49q-14 8 -27 19.5t-18 17.5t-16.5 23t-12.5 18z M279 788q18 -96 122 -96q44 0 80 27t39 65q6 78 6 254q0 36 -1.5 58.5t-8.5 50.5t-19.5 43t-36.5 26t-59 11q-65 0 -95 -35t-30 -90q0 -33 -3 -99.5t-2.5 -117.5t8.5 -97zM698 852q0 -7 6.5 -15t14.5 -8q3 0 4.5 1.5t2 4t0.5 5t-0.5 6.5t-0.5 6q0 37 -14 37q-13 0 -13 -37z " />
<glyph unicode="?" horiz-adv-x="737" d="M250 387q0 163 86 291q69 101 88 147q26 58 42.5 140t16.5 141q0 83 -20 114t-84 31q-49 0 -78 -22.5t-36.5 -56t-12 -73t-6 -73t-16 -56t-44.5 -22.5q-13 0 -41 5t-43 5q-57 0 -57 68q0 13 -1 42t-0.5 51t3.5 46q14 125 102 205t236 80q83 0 146 -32.5t98.5 -87t53 -118 t17.5 -133.5q0 -75 -23.5 -162t-72.5 -149q-29 -36 -62.5 -104t-60.5 -103q-51 -63 -51 -184q0 -25 -7.5 -41t-23.5 -22t-27 -7.5t-30 -1.5q-23 0 -32 0.5t-24 4.5t-20.5 12t-10.5 24t-5 41zM246 63q0 9 -0.5 25.5t-0.5 26.5t1 24t3.5 22t7.5 16t13.5 12t20.5 4q9 0 47.5 5 t60.5 -1q45 -7 45 -97q0 -25 -1.5 -40t-7 -31t-18 -23.5t-32.5 -7.5q-13 0 -46 3.5t-52 2.5q-20 -1 -30.5 16t-10.5 43zM420 49q0 10 -10 10q-54 0 -54 -14q0 -18 15 -18q49 0 49 22z" />
<glyph unicode="A" horiz-adv-x="833" d="M47 51q0 24 7 54.5t7 62.5q0 42 19.5 111t19.5 98q0 37 10 94.5t11 67.5q16 130 33.5 240t40 235t30.5 170q6 37 10 81t5.5 66t8 46.5t20 34.5t39 17t67.5 7q134 0 173.5 -18.5t39.5 -82.5q0 -14 17 -113.5t39.5 -241.5t33.5 -239q7 -66 38 -224t42 -236q1 -8 8 -58.5 t12.5 -94t5.5 -56.5q0 -30 -7 -42.5t-40 -21t-104 -8.5q-20 0 -32.5 12.5t-18 36t-7.5 46.5t-4.5 53.5t-5.5 48.5q-6 28 -25.5 45.5t-52 22.5t-58.5 5.5t-66 -2t-54 -2.5q-40 0 -55.5 -42t-20.5 -104t-16 -83q-12 -27 -29.5 -35t-68.5 -8q-31 0 -51.5 15.5t-20.5 41.5z M301 500q0 -62 57 -62q7 0 22 -0.5t23.5 0t22.5 1t22 2t19 4t17 7.5t12.5 11.5t9 15.5t2.5 21q0 44 -5.5 90.5t-16 108.5t-15.5 96q-2 13 -5 40t-6 46t-7 44.5t-8.5 43t-10.5 34t-14 25t-17 8.5q-24 0 -28 -37q-12 -79 -37 -192q-1 -5 -8 -22.5t-8 -36.5q0 -5 1 -19t1 -24 q0 -39 -11.5 -105t-11.5 -100zM625 453q0 6 -2 8t-9 2q-11 0 -21.5 -7t-10.5 -16q0 -18 14 -18q13 0 21 8.5t8 22.5z" />
<glyph unicode="B" horiz-adv-x="831" d="M711 451q0 -31 28 -31q12 0 23.5 -25.5t11.5 -48.5q0 -139 -67 -233q-34 -42 -60 -64q-55 -55 -274 -55q-39 0 -106 4t-103 4q-14 0 -25.5 3t-19 11t-13.5 14.5t-9.5 20t-6 20.5t-3.5 24t-1 21.5v21.5v18q0 19 3 48.5t3 51.5q0 48 -3 147t-3 150q0 34 3 97t3 98 q0 29 -3 85.5t-3 84.5q0 53 3 144.5t3 143.5q0 24 -3 72t-3 72q0 43 33.5 64.5t79.5 21.5q40 0 116 2t121 2q42 0 84.5 -9.5t85 -31.5t75 -54t53 -80t20.5 -106q0 -77 -1.5 -114t-9.5 -85t-26 -83q-9 -18 -27 -43.5t-29.5 -44.5t-11.5 -33q0 -16 7.5 -27t19.5 -23t18 -22 q2 -3 10.5 -16.5t11.5 -18.5l10.5 -17.5t11 -19.5l9.5 -19t9 -21t6 -20.5t4.5 -22t1.5 -21.5q0 -27 -3 -38t-6 -12.5t-16 1t-22 2.5q-10 0 -10 -10zM305 233q0 -16 12.5 -30t30.5 -17q45 -7 105.5 3t95.5 53q7 9 12.5 74t5.5 145q0 93 -42 135.5t-111 42.5h-12 q-20 0 -30 -0.5t-25 -3.5t-22 -9.5t-13 -20t-7 -32.5q-4 -98 -4 -159q0 -13 2 -88.5t2 -92.5zM541 1116q0 44 -31.5 84.5t-73.5 40.5q-13 0 -41 1.5t-43 0.5q-19 -2 -32.5 -14.5t-14.5 -32.5q-7 -50 -2 -156t2 -153q-1 -23 14.5 -35t30.5 -14t39 -2q40 0 68.5 10t45 26.5 t25.5 43t12 52t3 62.5q0 15 -1 44t-1 42z" />
<glyph unicode="C" horiz-adv-x="790" d="M66 387q0 45 6 72q0 1 3 10t6 20t3 15q0 18 -5.5 46t-6.5 40q-4 41 -4 125v137q0 20 4 59t4 50q0 157 2 169q10 49 18.5 80t24.5 70t35.5 64t51 48.5t73.5 37.5q64 22 94 22q82 0 144.5 -22t101 -58.5t63 -88.5t34 -105.5t9.5 -116.5q0 -30 -1.5 -46t-8 -37.5t-23 -31.5 t-43.5 -10q-4 0 -14 -0.5t-17.5 -0.5t-21 2t-27.5 7q-40 10 -45 55q-1 9 -6.5 28.5t-5.5 27.5q0 31 -1 50t-6.5 48t-16.5 46t-32.5 29.5t-51.5 12.5q-31 0 -54 -13.5t-35.5 -39.5t-19.5 -54t-8.5 -68t-1 -69.5t2 -70.5t1.5 -60t2 -55t2 -53q0 -18 -2 -46t-2 -44 q0 -32 -1 -126.5t-0.5 -154t3.5 -92.5q4 -45 39.5 -75t79.5 -30q47 0 74.5 34t27.5 81q0 22 -2 60.5t-2 56.5q0 71 17.5 97t80.5 26q25 0 35.5 -0.5t30.5 -4.5t30.5 -15t14.5 -29q6 -38 6 -134q0 -56 -10.5 -110.5t-33.5 -108.5t-67 -92.5t-104 -50.5q-92 -18 -139 -18 q-30 0 -84 17.5t-86 39.5q-100 69 -117 188q-18 126 -18 160zM162 758q0 -31 28 -31q15 0 15 18q0 9 -11 16t-22 7q-7 0 -8.5 -2t-1.5 -8z" />
<glyph unicode="D" horiz-adv-x="835" d="M172 12q-42 0 -64 27t-24 61q-3 58 2 222.5t-6 226.5q-8 101 -6.5 159t7 161.5t5.5 160.5q0 126 8 326q2 29 24.5 52.5t63.5 23.5q40 0 109 3.5t121.5 3.5t95.5 -7q94 -15 155 -62t87 -143q18 -69 18 -142v-145q0 -25 -5 -50.5t-5 -31.5q0 -58 6 -177t6 -177 q0 -172 -2 -203q-8 -96 -46 -154.5t-99 -97.5q-48 -32 -114 -41.5t-157 -9.5q-16 0 -87 7t-93 7zM403 1243q-21 0 -31 -0.5t-27.5 -3.5t-25.5 -9.5t-15 -19.5t-7 -32q0 -50 -2.5 -141t-2.5 -165t5 -141q7 -68 1.5 -226t-1.5 -226q3 -54 23 -68t69 -14t83 11.5t51 31.5t26 47 t8.5 59.5t-0.5 67.5q-1 39 3 161.5t-3 159.5q-2 17 -2 101q1 41 5 105t4.5 92t-3.5 85q-9 71 -46 98t-112 27zM168 1364q0 10 -10 10q-11 0 -19 -6.5t-8 -15.5q0 -5 -3 -11.5t-3.5 -10t2.5 -7.5q8 -5 24.5 11.5t16.5 29.5z" />
<glyph unicode="E" horiz-adv-x="753" d="M446 715q0 -21 13 -21q7 -1 8.5 2.5t1.5 10.5q0 6 -5 12t-11 6q-7 0 -7 -10zM700 1315q0 -25 -7 -40.5t-22.5 -22t-27.5 -8t-33 -1.5h-194q-73 0 -93 -22t-20 -107q0 -35 2 -92.5t2 -87.5v-53q0 -39 19.5 -51.5t58.5 -12.5h162q57 0 63 -55q1 -10 -5.5 -33.5t-6.5 -34.5 q0 -31 -8.5 -42.5t-34.5 -16t-92 -4.5q-52 0 -73 -1t-43.5 -6t-29 -15.5t-6.5 -30.5q0 -134 -2 -156q-10 -93 -2 -170q1 -12 4 -21.5t8.5 -16.5t10 -12t14 -8t14.5 -5t17.5 -2.5t17.5 -0.5h20h19q46 0 98 -2.5t70 -1.5q63 4 80.5 -16.5t17.5 -73.5v-10v-14.5t-1.5 -13.5 t-4 -14.5t-8 -12.5t-13.5 -12.5t-19.5 -8.5t-26.5 -6q-40 -5 -80.5 -5.5t-106.5 2.5t-80 3q-90 4 -120 4q-6 0 -30 -1t-30 -1q-39 0 -58 26t-24 76q-5 53 -0.5 174t-1.5 189q-11 149 -9 224t9.5 155t7.5 98q0 31 -4 84t-4 80q0 28 3 114t3 113q0 60 41 82.5t125 22.5 q11 0 63 -3t58 -3q29 0 76 2t85.5 2t76.5 -4q47 -6 61 -31t14 -88z" />
<glyph unicode="F" horiz-adv-x="698" d="M100 139q0 38 4.5 114t4.5 114q1 21 -2 59.5t-3 56.5q0 20 2.5 59.5t2.5 61.5q0 16 -2.5 42.5t-2.5 39.5q0 14 2.5 44t2.5 48q0 6 -2.5 38t-2.5 63q0 33 3.5 116t3.5 133v187q-2 44 16.5 76t56.5 36q45 5 172 5q27 0 66 1t66 2t59 0.5t53.5 -3.5t40.5 -8.5t28 -16.5 t9 -27q0 -14 -4 -46t-4 -46q0 -28 -10 -39.5t-35 -11.5q-3 0 -43 -1t-64 -5q-21 -3 -42.5 -3t-48 1.5t-42.5 1.5q-25 0 -41 -19.5t-16 -46.5q0 -9 2 -42t2 -38q0 -22 -5 -70t-5 -79q0 -11 1 -32.5t1 -35.5q0 -53 12 -72t47 -16q25 2 81 -2t85 -2q33 3 44 -18.5t11 -55.5 q0 -14 -3 -33.5t-3 -23.5q0 -18 -8.5 -29.5t-29 -16.5t-38.5 -6t-51 -1q-10 0 -30.5 0.5t-32 0.5t-28 -1t-26 -4t-19 -8.5t-14 -14.5t-4.5 -22q0 -24 -4 -65.5t-4 -61.5q-2 -74 -1 -150.5t1.5 -102.5t-2.5 -71q-4 -46 -21.5 -65t-52.5 -19q-9 4 -27.5 -2t-33.5 -6 q-41 0 -56.5 32.5t-15.5 106.5zM139 319q0 -20 15 -20q11 0 14.5 2.5t3.5 11.5q0 21 -18 21q-10 0 -12.5 -2t-2.5 -13z" />
<glyph unicode="G" horiz-adv-x="798" d="M80 817q-1 27 -3.5 91.5t-2.5 97.5q0 44 0.5 66t4 65.5t10.5 69.5t22 63t35.5 62t53 51t74.5 44q61 25 129 25q21 0 132 -27q51 -13 86.5 -52.5t49.5 -75.5t25 -85q19 -76 19 -118v-20q0 -30 -0.5 -44t-5 -32.5t-14.5 -26t-29 -13.5t-48 -6q-90 0 -90 64v119 q0 50 -43.5 91.5t-93.5 41.5q-34 0 -58.5 -19t-36.5 -50.5t-17 -63t-5 -66.5q0 -6 5.5 -49t5.5 -66q0 -2 -1 -19t-1.5 -38.5t-0.5 -58t1 -74.5q3 -74 -0.5 -234.5t0.5 -234.5q3 -49 30 -88t58 -39q4 0 24.5 -0.5t29.5 0t23.5 4.5t24.5 12q27 21 41 51.5t17 52.5t4 60 q0 5 2 44.5t2 45.5v30q0 77 -5 95.5t-32 18.5q-76 0 -76 41q0 21 -5 53t-5 49q0 28 20 41.5t51 13.5h101q10 0 28.5 -2t30.5 -2q15 0 26.5 -3.5t20 -12t14.5 -16t9.5 -23t6 -25t3 -30t0.5 -29.5v-32v-30q0 -37 1 -104t1 -100q0 -117 -33 -213q-19 -57 -67 -97.5t-105 -58.5 t-116 -18q-63 0 -94 5.5t-68 28.5q-2 1 -32.5 15t-45.5 28q-44 39 -65 105t-23 133q-7 170 0 276q4 67 0 242zM571 442q0 11 -2 13t-12 2q-5 0 -6 -1t-1 -6q1 -7 1 -12q0 -4 -1.5 -9t-0.5 -6t8 -1q14 0 14 20z" />
<glyph unicode="H" horiz-adv-x="874" d="M82 166q0 100 4 151q3 48 -1.5 150.5t-2.5 150.5q3 57 3.5 132.5t-0.5 187.5t-1 154q0 96 12 168q2 10 2.5 57t3.5 63q10 52 123 52q56 0 66 -66q8 -52 8 -358q0 -4 -1 -38.5t-1 -54.5q0 -22 1 -35t3.5 -25.5t10 -18.5t16.5 -11.5t26.5 -6.5t38.5 -1t53 2q38 2 55.5 3 t35.5 9t23.5 13.5t10.5 28t5 40.5t-1 62v53q0 10 -2 64t-2 118q0 12 -1 41.5t-1.5 47.5t3 43t11 39.5t23.5 25t39 10.5q13 0 38 8.5t42 8.5q20 0 33 -9t18 -26.5t6.5 -30t1.5 -31.5q0 -27 1 -78t1 -94t-2 -82q-4 -41 -1.5 -165.5t1.5 -167.5q0 -41 -6 -155.5t-6 -197.5 q0 -19 6 -108t6 -142q0 -5 0.5 -24.5t0 -28t-2 -26t-6.5 -26.5t-13 -20t-21 -15.5t-31 -4.5q-13 0 -40 5t-40 5q-19 0 -32 7.5t-18 23t-7 25.5t-2.5 31t-0.5 22q-7 77 2 155q3 24 3 51.5t-1.5 61t-1.5 51.5q0 11 1.5 35.5t1.5 46.5t-3 41q-7 47 -23.5 59.5t-70.5 12.5 q-25 0 -71.5 -3.5t-65.5 -4.5q-21 -1 -30.5 -12t-11 -24.5t-1.5 -45.5q0 -20 1 -70t0.5 -86.5t-3.5 -71.5q-3 -45 -1 -131.5t-1 -124.5q-1 -22 -9 -36t-21 -19.5t-24.5 -7.5t-27.5 -2h-8q-23 0 -36 1t-32.5 5t-30.5 15.5t-14 29.5q-10 56 -10 119zM600 573q0 -11 8 -22.5 t15 -11.5q6 0 14 11t8 21q0 7 -7.5 13t-14.5 6q-8 0 -15.5 -5.5t-7.5 -11.5z" />
<glyph unicode="I" horiz-adv-x="389" d="M96 78q0 44 1 198t1 252q0 30 -5 120t-5 100q0 43 3.5 115.5t4 112.5t-3.5 111q-3 76 -3.5 95.5t2.5 96t3 87.5q1 35 27.5 53.5t64.5 18.5q18 0 37 -8.5t37 -8.5q43 0 43 -145q0 -38 -5 -110.5t-5 -102.5q0 -37 5 -105.5t5 -103.5q0 -69 -6 -156t-6 -104q0 -29 3 -92 t3 -99q0 -2 1.5 -83t2 -144t-1.5 -117q-2 -27 -15 -40.5t-44 -16.5l-17.5 -3.5t-27 -4t-31.5 -0.5q-16 1 -25 3.5t-20.5 10t-17 25t-5.5 45.5zM229 1370q0 -10 13 -10q10 0 10 10q0 14 -10 14q-7 0 -10 -2t-3 -12z" />
<glyph unicode="J" horiz-adv-x="524" d="M444 426q0 -46 -2 -83t-9.5 -84.5t-20 -83.5t-36 -72.5t-55 -60.5t-78.5 -39t-106 -15q-12 0 -23.5 1.5t-26.5 7.5t-26 16t-18.5 28.5t-7.5 42.5q0 9 5 25.5t5 25.5q0 24 20 35.5t48.5 16.5t56.5 13.5t48 37.5t20 79q0 51 4 121t4 74q0 11 -6.5 38t-6.5 42q0 17 1.5 45 t1.5 41q0 31 -1.5 102t-1.5 107q0 29 5.5 149.5t-0.5 143.5q-4 14 -1 90t3 84q0 30 8.5 48.5t27 26t32.5 9.5t38 2q98 0 98 -78q0 -20 2 -57.5t2 -70t-4 -63.5q-7 -69 -7.5 -127.5t2 -108.5t1.5 -75q-1 -24 1.5 -67t2.5 -60q0 -21 -1 -57.5t-1 -54.5q0 -33 1 -97t1 -98z M291 479q0 -20 12 -20q21 0 21 22q0 19 -19 19q-14 0 -14 -21z" />
<glyph unicode="K" horiz-adv-x="847" d="M98 74q0 10 -1 58t-1 83q0 11 5 40.5t5 55.5q0 21 -6 117t-6 133q0 16 1 59.5t1 61.5q0 7 7.5 41.5t7.5 58.5q0 23 -7.5 63t-9.5 64q-2 28 1.5 106.5t-3.5 127.5q-3 38 -2.5 72.5t2.5 86t2 62.5q0 60 49 70q18 4 84 4q27 0 47.5 -14.5t20.5 -37.5q0 -2 2 -17.5t3 -28.5 t-1 -27q-6 -37 0 -109q9 -93 6 -180q-4 -87 0 -115q6 -39 27 -39q12 0 23.5 14t17.5 29q48 122 57 131q3 3 10 8t9 7q4 4 8.5 29t17.5 49q1 1 10.5 19t21 40.5t21.5 46.5q45 101 74 146q16 23 26.5 32t30.5 15q23 4 36.5 3.5t38 -3t36.5 -2.5q37 0 37 -39q0 -31 -43 -121 l-160 -309q-5 -10 -24 -62.5t-25 -66.5q-35 -76 35 -234q12 -27 32.5 -71.5t31.5 -70.5t24.5 -59t21.5 -59q17 -58 46 -120.5t32 -71.5q29 -82 25 -103q-2 -16 -11 -26t-27 -13.5t-30 -4.5t-39.5 0t-36.5 1q-10 0 -19 2t-15.5 4t-13.5 7.5t-11 8.5t-9 12.5t-7 12.5t-6.5 15 t-5.5 14.5t-5.5 16.5t-5.5 16q-5 16 -19.5 48t-19.5 50q-12 38 -49 127t-53 147q-12 56 -41 56q-23 0 -47 -32.5t-27 -57.5q-6 -64 -6 -123q0 -6 3 -69t3 -103q0 -10 1 -34.5t0.5 -42t-3.5 -34.5q-2 -14 -11.5 -24t-19.5 -15t-28 -7.5t-27 -3t-28 0.5h-19q-30 0 -51 18 t-21 60zM186 227q0 -12 11 -12q12 0 12 10q0 13 -12 13q-11 0 -11 -11z" />
<glyph unicode="L" horiz-adv-x="694" d="M152 2q-24 0 -40 14.5t-16 42.5q0 3 2.5 14.5t2.5 19.5t-3 20q-6 14 -6 43v120q0 16 3 111.5t-1 118.5q-4 85 -3.5 133t4 133t3.5 133q0 18 6 54.5t5 74.5q0 11 -8.5 38.5t-8.5 72.5q2 88 2 211q0 28 9 45.5t26 24t30 8.5t34 2q40 0 63 -5t33.5 -19t13 -26t3.5 -40 q1 -7 1 -11q3 -55 -1 -145t-1 -123q3 -59 2.5 -107.5t-3.5 -116.5t-3 -85q0 -23 -0.5 -66.5t-0.5 -69.5t1 -62t4 -66q6 -29 1 -127t-5 -119q0 -24 14.5 -45.5t34.5 -20.5q23 2 72 0.5t67 -0.5q28 1 50 1t39.5 -0.5t30 -4t21.5 -6.5t15 -10t9.5 -13t5 -17t2 -20t0.5 -24 q0 -50 -10 -70t-34 -18q-61 2 -143.5 -1t-103.5 -3q-34 0 -106.5 3t-112.5 3zM137 1292q0 -12 13 -12q10 0 10 12q0 6 -2 7t-8 1q-13 0 -13 -8z" />
<glyph unicode="M" horiz-adv-x="1107" d="M451 45q-1 4 -8.5 35t-13.5 58.5t-7 35.5q-1 4 -4 24t-5.5 37t-2.5 21q0 10 -1 28.5t-1 30.5q0 25 -14.5 70.5t-16.5 60.5q-25 161 -45 254q-11 54 -34 66q-17 9 -22 -21q-2 -9 -2 -22q0 -23 -1 -62t-1 -61q0 -21 -3 -91t-1 -110q4 -33 1 -105t-3 -87q0 -13 -1 -35.5 t-1 -30.5q0 -13 1 -37t1 -41q0 -21 -12 -41t-43 -20q-6 0 -23 -4t-34 -2q-30 4 -45 19.5t-17 35.5q-4 34 -5 72t0 90.5t1 67.5q0 40 -1 71t-1 76q0 8 5 86.5t-1 142.5q-4 97 -3.5 160t3.5 133l2 70q0 31 -3 137.5t-3 202.5q0 74 51 74q15 0 44.5 4t47.5 4q14 0 49 -3t52 -3 q22 0 36 -9t22 -31.5t11 -40.5t8 -56q1 -6 1 -9q3 -20 13 -67t11 -72q5 -29 2.5 -58.5t-2.5 -35.5q3 -40 23 -98.5t22 -90.5q2 -43 18.5 -102t22.5 -90q4 -20 7 -44.5t4.5 -34.5t5.5 -20.5t10 -14t18 -3.5q8 0 14.5 8.5t10.5 22.5t6.5 26.5t4.5 27.5t3 18l21 98q3 13 4 45 t4 49l14 64q6 39 15.5 109.5t15.5 109.5l33 202q7 38 19 58.5t38 23.5q17 2 45 13.5t88 11.5q115 0 115 -72q0 -12 1 -30.5t1 -47.5q0 -25 -1 -77t-1 -74q0 -14 1 -34t1 -32q3 -92 2.5 -148t-2.5 -112.5t-2 -58.5q0 -13 1 -46.5t1 -56.5q0 -26 -6 -88.5t-6 -85.5 q0 -22 6 -90.5t6 -93.5v-117q0 -6 -1 -42t-1 -42q0 -92 -72 -92q-10 0 -30.5 -3t-30.5 -3q-40 0 -54 18t-14 76q0 8 1 29.5t1 36.5q0 3 -2.5 35.5t0.5 37.5q5 34 -1.5 97.5t-6.5 85.5q0 38 4 121t4 131q0 80 -20 78q-22 -4 -40 -94l-8 -52q-1 -3 -4 -21t-6.5 -37.5 t-5.5 -33.5q-6 -56 -25 -154.5t-24 -134.5q-16 -116 -27 -178q-3 -16 -10 -25.5t-21.5 -13t-22.5 -4t-30 -0.5q-25 0 -36 0.5t-33 4.5t-33.5 14.5t-15.5 27.5zM342 827q0 -7 6 -14.5t14 -7.5q7 0 12 6t5 14q0 23 -19 23q-8 0 -13 -6t-5 -15z" />
<glyph unicode="N" horiz-adv-x="874" d="M84 92q9 163 0 328q-2 52 6 241.5t0 305.5q-2 26 0.5 87t-0.5 87q-11 95 -2 200q4 53 23 73t53 20q14 0 39 -2t39 -2q12 0 34.5 1t30.5 1q49 0 70 -86q94 -362 137 -476q15 -42 24.5 -74.5t12.5 -49.5t4 -19q8 -33 25 -33q7 0 12.5 10t5.5 19q14 137 14 240q0 18 -5 71.5 t-5 100.5q0 202 2 241q3 49 47 49q10 0 30.5 6.5t23.5 6.5q4 0 14.5 0.5t15 0t12.5 -1.5t12.5 -3t8.5 -7t6 -12q10 -42 10 -143v-264q0 -29 -5 -70.5t-5 -60.5q0 -15 4 -41t4 -37q0 -17 -2 -47t-2 -47q0 -39 3 -123t3 -127v-97q0 -26 -3 -153t-3 -135q0 -37 -20 -53.5 t-64 -16.5h-10h-30.5t-28 2.5t-27 7t-19.5 14t-14 23.5q-2 5 -15 38t-27.5 79.5t-28.5 105.5q-11 47 -41.5 146t-42.5 155q-9 44 -36 128.5t-36 121.5q-4 20 -16.5 44t-24.5 24q-23 0 -23 -45q-3 -49 -2 -149t-2 -150q-3 -47 -0.5 -150.5t-1.5 -146.5q-3 0 -2 -85l2 -85 q0 -78 -63 -78h-55q-69 0 -66 92zM643 940q0 -37 33 -37q18 0 18 21q0 13 -10.5 26t-24.5 13q-16 0 -16 -23z" />
<glyph unicode="O" d="M88 236q-8 73 -8 147q0 11 4 33t4 33q0 8 -2 28.5t-4 67t-2 117.5q0 77 1.5 128t3 73.5t1.5 29.5q0 37 -3 110.5t-3 110.5q0 147 69 237.5t181 90.5q24 0 57 8t57 8q109 0 170 -53q134 -119 125 -287q-3 -58 1.5 -178t0.5 -182q-5 -75 -0.5 -220.5t-1.5 -250.5 q-3 -56 -32.5 -121.5t-73.5 -108.5q-40 -37 -103 -55t-127 -18q-71 0 -139 28.5t-118 88t-58 135.5zM266 512q-1 -28 6 -67.5t7 -59.5q0 -46 4.5 -78.5t17 -65t39.5 -49t68 -16.5q59 0 89.5 42t30.5 101q0 49 -4 146.5t-4 146.5q0 38 6 54q9 25 10.5 46t-1.5 47.5t-3 39.5 q0 71 1 139t1.5 109.5t0.5 48.5q0 72 -30.5 125t-96.5 53q-61 0 -96.5 -49.5t-35.5 -114.5q0 -47 1.5 -145.5t1.5 -149.5q0 -2 1.5 -16.5t3 -47.5t1.5 -81q0 -66 -9.5 -110.5t-9.5 -47.5zM547 623q0 -16 5 -21t15 -2q17 6 17 21q0 18 -19 22q-9 2 -13.5 -2t-4.5 -18z" />
<glyph unicode="P" horiz-adv-x="772" d="M360 1241q-25 0 -44 -11t-19 -36q0 -8 -2 -27.5t-2.5 -36t2.5 -53.5q9 -78 2 -274q-1 -31 15 -47.5t33.5 -19.5t45.5 -3q35 0 61 7.5t41 23.5t24.5 31t13 39.5t4 38t0.5 37.5v10q0 46 0.5 97.5t1 86.5t0.5 41q0 96 -177 96zM219 8q-11 0 -39.5 -4t-42.5 -4q-53 0 -53 72 q0 12 2.5 48.5t1.5 57.5q-3 50 -0.5 164t0.5 164q0 6 -1 30t-1 29q0 15 3 101.5t3 103.5q0 22 -1.5 70t-3 88t-1.5 43q0 9 1 107t1 106q1 18 -0.5 63.5t0.5 63.5q5 60 33.5 92.5t77.5 32.5q41 0 115 -2t120 -2q119 0 184 -60q88 -78 111 -170q19 -69 19 -115v-249 q0 -81 -53.5 -167t-139.5 -112q-59 -16 -207 -22q-40 -8 -51 -56q-4 -12 -8 -43.5t-4 -42.5q0 -16 3 -49.5t3 -52.5q0 -1 1.5 -64t-1.5 -63q-3 -11 -0.5 -46.5t2.5 -43.5q0 -36 -17.5 -52t-56.5 -16zM209 86q0 -8 3.5 -10t12.5 -2q5 0 12 6t7 14q0 3 -4.5 6.5t-8.5 3.5 q-7 0 -14.5 -6t-7.5 -12z" />
<glyph unicode="Q" d="M524 2q-20 0 -63 -9t-66 -9q-55 0 -115 19.5t-109 59.5t-58 89q-4 23 -16 62t-15 65q-6 60 -9 138t-3.5 127t0 152t0.5 131q0 17 2 103t2 141q0 19 4.5 44.5t8 38t13.5 46t11 35.5q27 92 108 153.5t184 61.5q172 0 250 -111q28 -38 50 -101t22 -97q0 -53 3 -166t3 -168 q0 -49 -5 -149t-5 -152q0 -6 2 -21t2 -22q0 -13 -5 -43t-5 -43q0 -58 -1 -77.5t-8 -54t-24 -81.5q-8 -23 4 -38.5t31.5 -22.5t37 -19t17.5 -29q0 -1 1 -26.5t0 -39t-5 -33.5t-15 -30t-28 -10q-25 0 -82 21q-14 5 -51 35t-68 30zM283 352q0 -45 3.5 -72.5t16 -53.5t39.5 -38 t70 -12q18 0 29 1t25.5 5t23 14t12.5 25q2 2 11 32.5t11 33.5q-2 23 -2 63q0 31 4 76t4 68q0 60 -3 173t-3 160q0 19 3 49t3 33v195q0 61 -37.5 102t-93.5 41q-49 0 -79 -32t-33 -97q-12 -299 0 -450q2 -20 2 -42.5t-1 -50.5t-1 -43q0 -14 1 -39t1 -46t-2 -39q-4 -46 -4 -56 zM614 459q0 -11 6.5 -18t16.5 -7q9 0 13.5 1t8 5t3.5 13q0 24 -33 24q-15 0 -15 -18z" />
<glyph unicode="R" horiz-adv-x="823" d="M88 59q-5 45 -1.5 161t1.5 161q0 12 -1 32.5t-1 30.5q0 20 3 57t3 54q0 1 -1 34.5t-2 82.5t-1 88q0 30 4 100q2 39 -1 127t-1 135q6 111 6 211q0 46 23.5 70.5t89.5 30.5q33 3 114.5 0.5t118.5 -0.5q17 2 63 -7t68 -18q74 -31 124.5 -106t50.5 -154q0 -24 2.5 -65 t2.5 -74.5t-5 -63.5q-23 -120 -62 -178q-6 -9 -19 -25.5t-21.5 -30t-8.5 -24.5t7 -20t21.5 -25t26.5 -35q25 -40 37 -109t12 -130q0 -41 1 -106t1 -101v-62q0 -8 11 -35.5t4 -44.5q-2 -6 -9 -10t-17 -6.5t-20 -3.5t-23.5 -1.5t-22 -0.5h-20.5h-15q-31 0 -50.5 9t-27.5 28.5 t-10 34.5t-2 41v12q0 98 -1 143.5t-5 112t-13.5 94t-26.5 60t-44 43t-66 10.5q-30 0 -45 -2t-26 -12.5t-11 -32.5q0 -30 -5.5 -128.5t-0.5 -152.5q6 -63 6 -190q0 -41 -27.5 -55.5t-93.5 -14.5q-38 0 -64.5 15.5t-29.5 45.5zM303 815q2 -34 21 -49.5t65 -15.5q13 0 34 7 t32 15q22 14 37.5 29.5t23.5 26.5t13.5 34t7 31.5t3.5 40.5t3 43q0 3 5 25t5 30q0 213 -121 213q-79 0 -102.5 -13.5t-26.5 -64.5q-1 -16 -4 -55t-3 -56t3 -57q4 -34 3.5 -92t0.5 -92zM109 834q0 -15 1.5 -18t10.5 -3q13 0 19.5 3.5t6.5 17.5q0 7 -7.5 12.5t-18.5 5.5 q-12 0 -12 -18z" />
<glyph unicode="S" horiz-adv-x="765" d="M80 223q-1 11 0.5 35t1.5 35t-4 33t-4 34q0 41 5 64.5t19 34.5t28 13.5t42 2.5q76 0 76 -59v-88q5 -71 41 -114.5t94 -43.5q61 0 92 37.5t31 101.5q0 135 -109 256q-12 14 -47.5 41.5t-44.5 40.5q-11 14 -24.5 29t-23.5 24t-27.5 25.5t-26.5 24.5q-61 59 -98.5 152 t-37.5 153q0 158 46 250q12 22 26.5 39t23.5 24t29 19.5t27 17.5q36 24 68 34.5t84 10.5q81 0 162 -27.5t116 -87.5q12 -21 35 -96q2 -8 12 -41t14.5 -55t4.5 -45q0 -29 -8 -42.5t-37 -19.5q-67 -13 -68 -14q-13 -1 -31.5 -1t-34.5 17.5t-16 48.5q0 87 -29.5 133t-115.5 46 q-32 0 -48 -13.5t-28 -40.5q-2 -5 -8.5 -17t-9 -19t-5 -22.5t-2.5 -37.5q0 -53 11.5 -94t34.5 -72.5t45 -53.5t56.5 -52.5t55.5 -52.5q11 -11 35 -48t39 -53q3 -3 38.5 -33.5t51.5 -57t16 -60.5q0 -4 -3.5 -30t1.5 -30q6 -20 23.5 -32.5t23.5 -22.5q11 -18 11 -82 t-15.5 -124t-48 -114t-92 -87t-137.5 -33h-68q-33 0 -80.5 19.5t-64.5 31.5q-51 33 -85 84t-38 104zM559 291q0 -25 31 -25q16 0 20 6.5t4 20.5q0 26 -24 26q-13 0 -22 -8.5t-9 -19.5z" />
<glyph unicode="T" horiz-adv-x="729" d="M276 47q0 17 -3 94.5t-3 89.5q0 19 3 59t3 64q0 59 -5 182.5t-5 184.5q0 73 2 213t2 209q0 40 -13 67.5t-44 26.5q-22 -1 -62.5 1.5t-56.5 2.5q-31 0 -48 15.5t-17 41.5q0 3 -1.5 38t1.5 38q6 53 47 53q39 -1 98.5 2.5t91.5 2.5q25 -1 115 2t115 -2q42 -5 172 0 q21 1 31 -14t12 -36q2 -26 -6 -57t-9 -41q-3 -39 -53 -39q-14 0 -39.5 1t-46.5 1t-39 -2q-47 -3 -47 -45q0 -25 1.5 -72.5t1 -84t-4.5 -72.5q-6 -46 2 -178.5t4 -198.5q-3 -44 0 -133t0 -131q-4 -51 0 -145t0 -140q-2 -21 -16 -36t-37 -15q-27 0 -109 8q-16 1 -26.5 15.5 t-10.5 29.5zM293 94q0 -10 10 -10q27 0 33 22q4 13 -5 20q-5 3 -9 -1q-7 -7 -15 -11.5t-11 -8t-3 -11.5z" />
<glyph unicode="U" horiz-adv-x="815" d="M82 303q0 13 1 37t1 42.5t-2 33.5q-8 103 -7 158t6 129t5 98q0 25 2 70.5t2 82.5t-4 70q-4 30 -4 154q0 30 8 47.5t8 25.5q0 15 -7 51.5t-7 61.5q0 27 13 47.5t40 20.5q16 0 44 3t52 3q23 0 40.5 -11.5t17.5 -33.5q0 -5 2 -34t2 -36q0 -36 -2 -117t-2 -129q0 -9 2 -28 t2 -29v-475q0 -195 6 -275q5 -42 37.5 -73t77.5 -31q48 0 84 33.5t39 83.5q2 32 -3.5 82.5t-3.5 80.5q4 67 -2 202.5t-2 209.5q4 104 0 156q-4 59 1 164t1 145q-3 61 14 84t52 23q11 0 35 3t43 1q22 -2 37 -23.5t14 -54.5q-4 -131 1 -310t1 -219q-3 -33 0 -99t0 -99 q-5 -64 -1 -172t-1 -164q-3 -34 -31 -115q-26 -71 -45 -90q-107 -104 -287 -104q-46 0 -81 14q-10 4 -31 10t-34 12.5t-28 18.5q-63 51 -84.5 117.5t-21.5 146.5zM127 1274q0 -25 12 -25q8 0 8 13q0 4 -1 7t-2 4l-4 4l-5 5q-5 3 -6.5 0.5t-1.5 -8.5z" />
<glyph unicode="V" horiz-adv-x="823" d="M252 57q-5 52 -31 189q-8 44 -22 147.5t-27 157.5q-29 122 -53 321q-14 104 -27 175q-43 237 -43 339q0 9 2.5 16.5t7.5 12.5t10 9t14 6.5t15 3.5t17 1.5t17 0.5h17h15q27 0 50 -11t30 -34t13 -49t10 -45t9 -50.5t7 -45t6.5 -50t5.5 -45.5q3 -19 7 -59.5t7 -59.5 t18.5 -145t32.5 -193q7 -29 12 -61.5t9.5 -71t7.5 -61.5q1 -12 4.5 -25t12.5 -27t20 -14q21 0 29 60q2 20 6 57.5t7 60.5t9 56.5t15 62.5q8 32 12 90q4 91 30 212.5t33 205.5q6 66 19 133q10 61 26 83t58 22q12 0 30.5 -6t26.5 -5q24 3 41 -10t16 -41q-2 -45 -22.5 -127.5 t-22.5 -126.5q-3 -70 -34 -254q-3 -18 -8 -73.5t-15 -96.5q-21 -81 -44 -220.5t-24 -145.5q-3 -34 -3.5 -75t-2.5 -54q-4 -27 -13 -76t-11 -60q-5 -30 -25 -45t-67 -18q-41 -3 -95 3.5t-82 6.5q-29 0 -45 14.5t-18 34.5zM543 188q0 -11 2.5 -14.5t9.5 -3.5t8.5 1t1.5 9 q0 19 -6 19q-4 0 -10 -4t-6 -7z" />
<glyph unicode="W" horiz-adv-x="1153" d="M406 459q0 3 -6 5.5t-11 2.5t-15 -5t-18 -5q-4 0 -4 -4q0 -5 7 -13t14 -8q10 0 21.5 9.5t11.5 17.5zM195 156q-4 32 -12.5 94.5t-14 111t-8.5 91.5q-1 20 -15 114.5t-14 161.5q0 6 -6 26t-6 36q0 65 -17 154.5t-20 127.5q-2 21 -8.5 80.5t-10.5 110.5t-4 88q0 34 12 50 t44 25q14 4 28 4.5t34 -0.5t28 -1q21 0 34 -16.5t15 -39.5q2 -30 11.5 -94.5t10.5 -99.5q4 -78 21 -158q8 -44 17.5 -174t17.5 -197q3 -26 8 -66q6 -58 11.5 -74.5t21.5 -16.5q17 0 21.5 16.5t10.5 88.5q11 134 25 255q1 9 7.5 55t6.5 70q0 34 8 87.5t9 63.5q1 23 6.5 69.5 t7.5 68.5q1 13 2 36.5t1.5 37.5t4.5 32t10.5 28t19.5 17.5t32 7.5q10 0 38.5 7t51.5 4q31 -4 39.5 -31t18.5 -137q1 -10 1.5 -15.5t1.5 -14.5t2 -17q17 -167 19 -179q7 -44 13.5 -127t8.5 -102q12 -112 17 -151q5 -34 12 -85q8 -68 14.5 -86t24.5 -18q20 0 27 34.5t14 139.5 q1 16 2 25t7.5 76t6.5 104q0 54 15 153t18 140q2 44 10.5 125t10.5 110q3 45 51 45q9 0 37 6t43 1q48 -14 45 -58q-2 -19 -11 -85.5t-10 -102.5q-3 -79 -10 -157.5t-23.5 -207t-19.5 -157.5q-1 -8 -2 -30t-2.5 -41t-3.5 -30q-2 -14 -15.5 -89t-19.5 -118q-12 -69 -12 -110 q0 -19 -4 -55q-6 -85 -18.5 -126.5t-30 -53t-52.5 -11.5q-15 0 -54.5 -2t-65 -1t-42.5 7q-49 19 -49 144q0 16 -5 55.5t-11.5 83.5t-7.5 53q-3 24 -11 111q-15 135 -30 135q-27 0 -29 -92q-1 -25 -12.5 -125.5t-16.5 -184.5q-8 -118 -32.5 -156t-98.5 -38q-6 0 -34 5t-60 5 q-26 0 -44.5 8t-28.5 16.5t-17 29t-8.5 30.5t-4 37t-3.5 33z" />
<glyph unicode="X" horiz-adv-x="880" d="M86 0q-21 0 -30.5 15.5t-4.5 33.5q9 43 49 143.5t45 114.5q6 16 20.5 52.5t22.5 58t17.5 53.5t15.5 59q6 29 33 100t27 105q0 88 -64 242q-19 45 -38 96t-42 116.5t-39 108.5q-1 4 -10.5 22.5t-15.5 38t-4 38.5q1 10 7 17t16.5 11t21.5 6.5t25.5 3t24.5 0.5t22.5 -0.5 t15.5 -0.5q74 0 92 -58q22 -69 64.5 -180.5t62.5 -181.5q12 -49 33 -49q4 0 7.5 1t6.5 4l5 5t4.5 7t3 7t3 8t2.5 7q4 13 26.5 73t31.5 97q8 33 29.5 92.5t27.5 93.5q7 36 22 54.5t44 15.5q18 -2 47 0t49 0q47 -5 39 -58q-5 -30 -31 -81.5t-29 -63.5q-9 -37 -34.5 -109.5 t-34.5 -109.5q-11 -44 -38 -124.5t-32 -95.5q-15 -54 0 -100q13 -42 56 -148t57 -165q6 -25 15.5 -54t17 -48t22 -53.5t21.5 -51.5q65 -162 -5 -162q-20 0 -51 -3t-57 -3q-46 0 -72 47q-17 29 -35.5 100t-38.5 127q-45 130 -63 195q-12 41 -37 41q-23 0 -33 -31 q-8 -29 -38 -107.5t-39 -121.5q-7 -32 -31.5 -96t-32.5 -103q-4 -23 -22.5 -39t-40.5 -16q-17 0 -54 2t-55 2zM604 131q0 -7 2.5 -10t5.5 -3.5t9 -0.5q3 0 6.5 -1t4.5 -0.5t1 5.5q0 7 -7 12.5t-14 5.5q-8 0 -8 -8zM649 104q0 -5 1.5 -9t5 -7t6 -5t8.5 -5l8 -4q6 -3 10 3 t4 15t-11 16t-22 7q-7 0 -8.5 -2t-1.5 -9z" />
<glyph unicode="Y" d="M295 39q-4 11 -4 32t2 44t2 26q0 10 1.5 32.5t1 40.5t-4.5 34q-6 22 4 50t10 38q0 16 -6.5 44.5t-7.5 35.5q-8 43 -12.5 84.5t-6.5 52.5q-21 116 -61 217q-7 19 -23.5 84.5t-35.5 120.5q-27 79 -45 155q-46 176 -56 216q-9 37 4 63.5t45 26.5q26 0 80 8q19 3 35 -9 t21 -30q43 -172 57 -217q2 -7 12 -46.5t17 -62.5q29 -89 41 -155q2 -11 6 -24t15 -27.5t26 -14.5q12 0 20 12.5t10 24.5q5 23 23 70t24 79q23 121 76 279q2 4 9 26.5t10.5 30.5t11 22t16 19.5t19.5 5.5q16 0 44 4.5t48 4.5q25 0 40 -17t11 -43q-2 -10 -13 -46.5t-13 -43.5 q-3 -10 -37.5 -110.5t-46.5 -151.5q-9 -37 -38 -129t-40 -143q-11 -49 -39.5 -132.5t-38.5 -125.5q-8 -28 -11 -129t3 -146q3 -21 3.5 -46.5t0 -42.5t-2 -48t-1.5 -43q0 -37 -33 -43q-24 -5 -62 0.5t-49 5.5q-49 0 -61 37zM360 442q0 11 -2 13t-12 2q-5 0 -6 -1t-1 -6 q1 -7 1 -12q0 -4 -1.5 -9t-0.5 -6t8 -1q14 0 14 20z" />
<glyph unicode="Z" horiz-adv-x="757" d="M457 1198q0 16 -10.5 28.5t-26.5 12.5q-6 0 -18 1t-23.5 1t-22.5 -2q-28 -5 -56.5 -5t-77.5 2t-70 3q-40 2 -60 14.5t-20 42.5q0 10 3 32.5t3 27.5q2 28 10 45t24 23.5t28.5 8t37.5 1.5h211q57 0 138 -4l81 -3q80 0 80 -69q0 -78 -7 -111t-38 -117q-5 -13 -30 -82 t-48 -129t-33 -75q-35 -53 -55.5 -101t-34 -93.5t-22.5 -65.5q-35 -77 -121 -318q-2 -8 -2 -26q0 -22 17 -35.5t40 -11.5q35 4 142.5 1.5t142.5 -1.5q51 0 51 -91q0 -30 -2 -44t-11 -31t-32 -23t-61 -4q-68 4 -207 0t-207 0q-62 3 -87.5 20t-25.5 56q0 102 15 155 q14 56 70.5 173.5t72.5 177.5q8 31 22 66t34.5 79t29.5 66q156 379 156 405zM369 63q0 -10 12 -10q8 0 8 15q0 12 -8 12q-12 0 -12 -17z" />
<glyph unicode="a" horiz-adv-x="833" d="M299 504q0 -45 20.5 -54.5t106.5 -9.5h31t22 2.5t19.5 7t9 14t4.5 23.5q0 32 -47 347q-4 25 -8.5 67t-8 68.5t-9 54.5t-13 41.5t-18.5 13.5q-46 0 -58 -192q-2 -22 -22 -170q-29 -190 -29 -213zM53 84q0 55 15 63q5 3 11.5 -5.5t14.5 -8.5q6 0 12.5 5.5t6.5 11.5 q0 7 -6.5 12.5t-12.5 5.5q-4 0 -12 -2.5t-10 0.5q-4 2 -4 14q0 21 9.5 63t10.5 54q2 15 5 47t5 47q5 41 14.5 95t16 89.5t6.5 42.5q0 30 15.5 90.5t15.5 92.5q0 42 14.5 116t16.5 91q30 242 65 383q12 43 64 43q19 0 58.5 -7.5t55.5 -7.5t40.5 7.5t39.5 7.5q19 0 31.5 -8 t18.5 -24.5t8.5 -30.5t5 -38.5t4.5 -36.5q1 -4 5 -25t8 -43.5t5 -25.5q1 -5 3 -31.5t3 -31.5q6 -40 20.5 -116.5t20.5 -117.5q15 -96 15 -143q0 -21 9.5 -53.5t10.5 -38.5q2 -16 4.5 -52t3.5 -40q15 -52 28 -140t19 -116q7 -33 48 -273q3 -20 -13 -33.5t-39 -13.5 q-7 0 -39 2t-63 2q-23 0 -35 11.5t-14 25.5q-1 14 -14.5 78t-14.5 74q0 3 -1.5 12l-2 12t-2 10.5t-3 10.5t-4 9t-5 8t-7 6t-9.5 5.5t-12 2.5t-15 1q-5 0 -33.5 -3t-65.5 -3q-84 0 -104 -8q-27 -11 -38.5 -41.5t-12.5 -66.5t-3.5 -70t-19 -57t-51.5 -23q-49 0 -76 6 q-15 3 -23.5 9.5t-12.5 18.5t-4.5 21.5t-0.5 28.5z" />
<glyph unicode="b" horiz-adv-x="831" d="M299 948q0 -68 7.5 -87.5t43.5 -22.5q37 -3 65.5 1t58.5 19t46.5 50.5t16.5 90.5q0 15 1.5 36t1.5 35.5t-3 25.5q-2 8 -5 25.5t-5.5 26t-7 21t-12.5 22.5t-20 19q-39 31 -110 31q-48 0 -63 -27.5t-15 -83.5q0 -15 1 -42t1 -39q0 -16 -1 -49.5t-1 -51.5zM96 76 q-3 35 -4 82t-1 83.5t0.5 100.5t0.5 100q0 34 1 99t1 92q0 52 -1 132t-1 103q0 40 7 95.5t7 85.5q0 20 -7 92.5t-7 118.5q0 25 0.5 37t3 37.5t10 39.5t19 30.5t32 24t48.5 7.5t103 6.5t122 1.5q22 -2 64.5 -13t58.5 -14q56 -11 95.5 -45t59.5 -84t28.5 -101t8.5 -110 q0 -57 -2.5 -90t-15 -76t-37.5 -77q-4 -5 -16.5 -20t-18.5 -26.5t-6 -25.5t4 -22.5t20.5 -25t24.5 -26.5q78 -94 78 -280q0 -167 -47 -252q-43 -75 -116 -114.5t-156 -39.5q-12 0 -35 2t-33 2q-4 0 -28 -2.5t-59 -4t-114 0.5q-49 1 -69 19t-23 57zM307 233q5 -45 74 -45 q85 0 122 26t56 81q6 17 8 39t2 39.5t-1 48.5t-1 49q0 103 -48.5 139.5t-160.5 36.5q-39 0 -48 -17t-9 -75q0 -27 -1 -85t-1 -87q0 -85 8 -150zM451 778q0 -14 12 -14q10 0 10 8q0 14 -10 14q-12 0 -12 -8z" />
<glyph unicode="c" horiz-adv-x="790" d="M74 307q-6 49 -2 157t2 157q-2 92 -1 128.5t5 83t4 58.5q1 24 -5.5 62.5t-6.5 41.5q0 194 36 285q4 9 19.5 30t17.5 25q35 52 110 84.5t144 32.5q63 0 118.5 -24t93 -61.5t61.5 -77.5t35 -79q23 -80 18 -192q0 -22 -13 -37.5t-40 -15.5q-13 -1 -41 -9t-43 -8 q-30 0 -45 15t-15 38q0 97 -6 129q-13 64 -45.5 92.5t-73.5 28.5q-33 0 -56.5 -11t-37 -34.5t-21 -48t-9.5 -63t-1.5 -67t2 -73.5t1.5 -69l1 -70q2 -70 -1 -70q-8 -63 -1 -215t5 -200q-4 -70 31 -113t89 -43q53 0 88 38.5t35 92.5q0 25 3 78t3 78q0 57 43 57q1 0 16.5 1 t29.5 1t33.5 -2t34 -7.5t24.5 -16.5t10 -27v-100q0 -31 -1.5 -56.5t-4.5 -44.5t-5 -30.5t-5.5 -25.5t-4.5 -17q-29 -116 -106.5 -162.5t-192.5 -46.5q-85 0 -170 47q-8 4 -26.5 12.5t-28 14t-22 19.5t-21.5 34q-1 3 -8 18t-9 20t-8 19t-8.5 21t-7.5 20.5t-7.5 23t-5.5 22.5 t-4.5 26t-2.5 26zM496 94q0 6 -2 8t-9 2q-53 0 -53 -14q0 -18 14 -18q50 0 50 22z" />
<glyph unicode="d" horiz-adv-x="835" d="M205 -4q-23 0 -38.5 2.5t-35.5 12t-30.5 32.5t-10.5 59q0 22 3 69t3 69q0 9 -2.5 37t-3.5 36q-3 73 -1.5 206t-0.5 243q0 4 -2.5 78.5t-1.5 97.5q2 31 0 93.5t0 98.5q3 48 2 122.5t2 93.5q11 90 111 90q37 0 107.5 -4.5t133.5 -4.5q214 0 277 -155q53 -127 53 -230 q0 -45 -4 -143t-4 -156q0 -37 4 -105.5t4 -98.5q0 -5 -2 -22t-4 -58t-2 -103q0 -92 -20.5 -156.5t-75.5 -123.5q-16 -18 -34.5 -31t-43 -21t-41 -13t-49.5 -7t-46 -2.5t-53 0t-49 0.5q-8 0 -51 -3t-94 -3zM301 244q4 -38 24 -46t87 -8q58 0 106.5 35.5t48.5 89.5 q0 39 -2 117t-2 117q0 23 4 72t4 86q0 35 -2 102t-2 102q0 53 -10 228q-3 51 -36 76.5t-79 25.5q-16 0 -47 5t-45 5q-53 0 -53 -63q0 -19 1 -59t1 -73t-2 -59q-1 -18 0.5 -63.5t-0.5 -63.5q-6 -90 -4 -144.5t7 -144t5 -137.5q0 -3 -3 -92.5t-1 -107.5zM119 223q0 -18 12 -18 q10 0 10 12q0 6 -5 11t-11 5t-6 -10z" />
<glyph unicode="e" horiz-adv-x="753" d="M98 74q0 21 -1 46t-1 44q0 43 2 124.5t2 119.5q0 101 1 179t3 118t3.5 64.5t2.5 33.5t1 10q0 28 -4.5 94t-4.5 107q0 7 -3 75t-3 76q0 15 1 52t1 61q0 15 -1 43t-1 41q0 27 17 48.5t47 21.5q18 0 62 4t57 4q10 0 49 -3t43 -3t125.5 2t126.5 -2q30 -1 41.5 -15t13.5 -47 l8 -72q0 -22 -9.5 -40t-31.5 -19q-75 -5 -154.5 -4.5t-113.5 -3.5q-26 -2 -43 -11.5t-24 -27t-9 -33t-2 -39.5q0 -17 3 -50.5t3 -47.5v-141q-1 -41 19 -51.5t100 -10.5q10 0 43.5 -2t42.5 -2q8 0 25.5 2t25.5 2q13 0 23 -3.5t15.5 -10.5t9 -13.5t4.5 -17t1.5 -16.5t0 -16.5 t-0.5 -12.5v-23v-21.5t-1 -17t-3 -15.5l-5.5 -11t-9.5 -9.5t-14.5 -4.5t-19.5 -2q-7 0 -37.5 1.5t-46.5 0.5q-40 -4 -121 0q-41 3 -41 -35q0 -20 -3.5 -70.5t-2.5 -79.5q4 -102 4 -186q0 -25 17.5 -42t42.5 -17q18 1 60.5 -0.5t60.5 0.5q2 3 56 1l54 -1q82 0 82 -60 q0 -14 -6 -44.5t-6 -47.5q0 -23 -13.5 -35t-33.5 -12q-31 -2 -92 1t-89 1q-36 -3 -74.5 -3.5t-92 0.5t-74.5 1q-44 0 -75.5 18.5t-31.5 55.5zM209 68q0 10 -10 10q-5 0 -9.5 -3t-7 -5.5t-7 -8.5t-5.5 -8q-4 -6 -1 -11t11 -5q13 0 21 8.5t8 22.5z" />
<glyph unicode="f" horiz-adv-x="698" d="M100 66q0 15 -4 93.5t0 96.5q4 23 0 84.5t-4 69.5q0 50 5 77t5 31t-5 24t-5 40q0 14 2.5 96t-0.5 110q0 13 4 108.5t-2 160.5q-3 47 -4 94.5t-0.5 76t2.5 72.5t2 64q0 28 18.5 50t47.5 22q4 0 91 3t107 3q24 0 61 -2.5t76 -2.5t91 5q29 2 58.5 -14.5t29.5 -59.5v-74 q0 -20 -14 -33.5t-33 -13.5q-14 1 -51 -1.5t-46 -2.5q-148 0 -180 -2q-18 -1 -27.5 -12t-12.5 -23t-6 -41q-1 -4 -1 -6q-3 -24 0.5 -73t-0.5 -93q-5 -54 4 -143q1 -22 6.5 -34t17.5 -17.5t22.5 -6.5t33.5 -1q68 0 90 -3q13 -2 34.5 2.5t31.5 4.5q43 0 51 -43q9 -57 0 -113 q-3 -20 -24 -28.5t-85 -8.5q-97 0 -137 -8q-16 -4 -25.5 -13.5t-13 -27.5t-4 -27.5t-0.5 -33.5v-111q0 -69 -8 -96t-8 -37q0 -6 7.5 -13.5t8.5 -21.5q4 -44 0 -133q-1 -45 -15 -59.5t-50 -14.5q-10 0 -33.5 -5t-36.5 -3q-72 14 -72 68zM252 215q0 -10 10 -10q12 0 12 10 q0 8 -12 8q-10 0 -10 -8z" />
<glyph unicode="g" horiz-adv-x="798" d="M80 281q-4 47 -6.5 124.5t2.5 120.5q5 24 0 113q-1 12 -3.5 59.5t-3.5 64t-2 50.5t0 58t3 47q5 42 6 106.5t2 83.5q10 136 57 204t148 103q16 4 48 18.5t64 14.5q77 0 141 -24t115 -99q19 -28 32 -57.5t20 -48.5t10.5 -54t4 -45t0 -52.5t-0.5 -47.5q0 -64 -39 -64 q-13 0 -43.5 -4.5t-46.5 -3.5q-32 3 -48 19.5t-16 38.5q0 14 2 48t2 48q0 56 -29.5 103.5t-90.5 47.5q-60 0 -92.5 -45t-32.5 -106q0 -35 1.5 -74t1.5 -63.5t-3 -49.5q-9 -74 0.5 -197t7.5 -153q-3 -35 -3 -73t1.5 -84.5t1.5 -71.5q0 -69 26.5 -113.5t83.5 -44.5 q42 0 69 15.5t38.5 45t15 60t0.5 72.5q-6 88 -6 178q0 34 -6 43.5t-35 9.5q-16 0 -25 1.5t-17.5 11t-8.5 26.5q0 11 -5.5 38.5t-2.5 59.5q1 26 18 37.5t47 16.5q23 4 48 4t55.5 -2t46.5 -2q47 0 65.5 -22.5t18.5 -88.5q0 -12 3.5 -95.5t-1.5 -97.5q-3 -11 -0.5 -60t2.5 -60 q0 -385 -311 -385q-40 0 -75.5 8.5t-50.5 15t-47 26.5t-38 23q-52 30 -82.5 89t-36.5 135zM205 983q0 -31 28 -31q15 0 15 19q0 9 -11 15.5t-22 6.5q-7 0 -8.5 -1.5t-1.5 -8.5z" />
<glyph unicode="h" horiz-adv-x="874" d="M571 102q3 46 -1.5 168.5t1.5 175.5q2 38 2.5 74.5t-14 65t-45.5 32.5q-25 5 -82 1.5t-82 -1.5q-20 1 -32 -8t-15.5 -21t-5.5 -34q-4 -38 -3.5 -102.5t-2.5 -104.5q-3 -39 1.5 -108.5t4.5 -92.5q0 -4 0.5 -22.5t0 -27t-2 -26t-6 -26t-12 -19.5t-19.5 -15.5t-29 -4.5 q-21 -8 -51 -8q-93 0 -90 74q1 34 -5 217.5t1 251.5q4 44 4 196q0 50 -1 124.5t-1 90.5q0 69 8 135q2 22 -3 119.5t-5 134.5q0 45 17.5 67t41.5 24q4 0 18 1.5t22 1.5t20 0.5t22 -1t19 -4.5q39 -14 47 -58q4 -14 5 -76.5t-3 -138.5q-7 -114 2 -285q2 -39 17.5 -51t62.5 -8 q15 1 56.5 -1.5t66.5 -2.5t40 6t22 19.5t9 27t2 35.5q0 38 -3 108.5t-3 100.5q0 22 2 136t2 128q0 64 91 64q63 0 90.5 -15t27.5 -65q0 -83 -6 -230t-6 -182q0 -15 -2 -46.5t-2 -49.5q0 -10 6.5 -53t7.5 -93q2 -61 2 -436q0 -35 -4 -69t-4 -35q0 -18 4 -55.5t4 -57.5 q0 -21 -11 -37t-32 -16q-19 0 -51 3t-51 3q-37 0 -52.5 18t-11.5 84zM731 111q0 -11 12 -11q9 0 9 11q0 12 -1.5 14t-7.5 2q-5 0 -7 -0.5t-3.5 -4t-1.5 -11.5z" />
<glyph unicode="i" horiz-adv-x="389" d="M96 74q-4 38 -0.5 160t-1.5 196q-1 14 0.5 48.5t1.5 62.5q0 14 -1.5 61.5t-2 88.5t1.5 114q2 40 -3 142t1 138q1 8 0 39t-2.5 61.5t-1.5 33.5q0 29 3 79t3 70q0 27 17.5 44t46.5 20q19 3 86 -2q61 -3 61 -62v-252q0 -51 -4 -92q-3 -35 1.5 -184t0.5 -232 q-5 -122 -2.5 -199t6.5 -102q3 -14 -2 -61q-3 -25 0 -83.5t0 -92.5q-3 -37 -19 -53.5t-53 -16.5q-9 0 -32.5 2.5t-36.5 1.5q-31 -3 -48 14.5t-20 55.5zM217 287q0 -23 23 -23q18 0 18 19q0 22 -22 22q-7 0 -13 -5t-6 -13z" />
<glyph unicode="j" horiz-adv-x="524" d="M43 39q-10 49 -6 82q3 27 15.5 41.5t26 17.5t37.5 6.5t38 8.5q37 13 58 52.5t21 84.5q8 343 3 489q-2 47 0 173.5t-3 172.5q-2 29 1.5 79.5t3.5 70.5v11.5v14.5t0.5 14.5t2 15.5t4 14t6 14t9 11.5t12.5 9.5t16.5 5.5t20.5 2.5q9 0 24.5 2t28 2t25.5 -4q14 -4 19.5 -6.5 t15.5 -9.5t14 -19t4 -29q0 -24 3 -113t3 -149q0 -50 -3 -150t-3 -116q0 -9 -3 -44.5t-3 -88.5q0 -55 8 -175q4 -82 4 -182q0 -110 -45 -188q-6 -10 -16 -28.5t-16 -29t-16 -23.5t-21 -22q-77 -63 -207 -63q-18 0 -27.5 1t-23 4.5t-21 13.5t-10.5 26zM260 1296q0 -12 14 -12 q9 0 9 12q0 6 -4.5 10.5t-10.5 4.5q-8 0 -8 -15z" />
<glyph unicode="k" horiz-adv-x="847" d="M98 70q7 31 3 221.5t-3 249.5q1 129 -4 253.5t-2 170.5q1 25 1.5 71.5t0 86t-1.5 75.5v35q0 9 3 75.5t3 75.5q0 54 74 54q9 0 30.5 -3t30.5 -3q46 0 62 -14t16 -40q0 -20 -5 -39.5t-5 -29.5q0 -24 6 -64.5t6 -66.5q0 -18 -1.5 -134t1.5 -135q0 -30 23 -30q5 0 11 3 t9.5 6.5t8.5 10t7 10t6.5 11t4.5 8.5l106 217q18 37 51.5 119.5t55.5 126.5q13 27 29.5 37t42.5 10q3 0 39.5 -3t44.5 -3q51 0 51 -35q0 -36 -15 -66q-13 -29 -51.5 -102.5t-56.5 -118.5q-18 -43 -55.5 -117.5t-46.5 -93.5q-29 -63 -32 -96q-4 -42 13 -84q1 -3 16.5 -52.5 t32.5 -78.5t34.5 -83t21.5 -63q93 -224 131 -327q9 -26 10.5 -48t-12.5 -40.5t-48 -18.5q-8 0 -30.5 -3t-38 -3.5t-41.5 4.5q-22 7 -34.5 34t-20.5 65t-11 47q-7 15 -31 51.5t-34 60.5q-21 45 -52 135.5t-38 108.5q-4 13 -15 23t-22 10q-29 0 -49.5 -44t-20.5 -79 q0 -17 1.5 -46.5t1.5 -53t-3 -46.5q-8 -74 -8 -112v-94q0 -29 -18 -45.5t-52 -16.5q-10 0 -30.5 -3t-30.5 -3q-35 0 -52.5 19.5t-17.5 52.5zM133 1126q0 -16 10 -16q17 0 17 16q0 15 -13 15q-14 0 -14 -15z" />
<glyph unicode="l" horiz-adv-x="694" d="M100 41q-8 15 -9.5 28.5t1 34t2.5 31.5q0 25 3 71.5t3 69.5q0 12 -3 33t-3 33q-8 56 0 143q4 59 1.5 172.5t0.5 171.5q3 55 1.5 178.5t2.5 184.5q2 30 -2 90.5t-4 87.5q0 66 64 66q13 0 41 -6t43 -5q35 3 53 -20t18 -74q0 -58 -3 -119.5t-3 -85.5q0 -6 1 -36t1 -76 q-1 -32 1 -165t-3 -165q-5 -14 -1.5 -139.5t3.5 -151.5q0 -17 -4 -46t-4 -44q0 -9 6 -53q5 -31 13 -41t36 -14q21 -3 60 -3.5t63 -3.5q27 -3 74.5 -1.5t73.5 -0.5q43 -4 43 -43v-82q-3 -32 -20 -46.5t-58 -14.5q-115 0 -195 4q-49 1 -60 0.5t-58 -3t-109 -3.5q-45 0 -70 43z M209 68q0 10 -10 10q-5 0 -9.5 -3t-7 -5.5t-7 -8.5t-5.5 -8q-4 -6 -1 -11t11 -5q13 0 21 8.5t8 22.5z" />
<glyph unicode="m" horiz-adv-x="1107" d="M831 55q-1 10 5 30t6 28q0 14 -8.5 39t-8.5 43q0 141 -1 263.5t-1 123.5q0 6 0.5 37t0.5 51.5t-1.5 46.5t-6 39.5t-11.5 13.5q-36 0 -72 -274q-8 -65 -33 -192.5t-26 -135.5q-12 -84 -23.5 -117t-36.5 -33q-9 0 -33 -7t-42 -9q-40 -4 -65.5 13t-35.5 73l-32 195 q-35 196 -56 262q-11 33 -20.5 92.5t-17.5 96t-19 36.5q-27 0 -27 -43q0 -162 4 -264q4 -2 2 -192.5t-2 -192.5q0 -72 -47 -72q-15 1 -22 0.5t-23.5 -3.5t-19.5 -3q-33 -4 -50.5 16.5t-17.5 61.5q0 56 -3 219t-3 254q0 33 3 102t3 107q0 4 -3.5 73t-2.5 85q9 213 0 417 q-3 55 20 78t58 23q12 0 47 -4.5t55 -4.5q10 0 26 0.5t26 1t21.5 -0.5t20.5 -5q10 -4 16.5 -10.5t14.5 -29t14 -60.5q6 -33 30 -151.5t38 -192.5q1 -8 4.5 -28.5t7 -42t6.5 -40.5q1 -19 29 -190q4 -22 7.5 -50t5.5 -41.5t5.5 -27.5t9 -19t13.5 -5q4 0 8 2t6.5 5.5t5 7.5 t4 10.5t2.5 11t2 12t1.5 11t1 11t0.5 8.5q0 2 7 34t7 44q0 26 3 54t7.5 52.5t13.5 74.5t17 98q6 40 21.5 114t21.5 111q20 120 23 160q4 48 38.5 64t94.5 16h9q45 0 64.5 -0.5t43.5 -4.5t33 -12.5t16.5 -23.5t9.5 -39q4 -35 4 -74t-2 -86.5t-2 -73.5q0 -23 1 -101.5 t0.5 -158t-3.5 -178.5q0 -26 -2 -76.5t-2.5 -82t0.5 -75t4 -79.5q4 -41 4.5 -89t-1 -117t-1.5 -104q0 -36 -21.5 -48.5t-85.5 -12.5q-35 0 -53.5 8t-23 18t-5.5 29zM604 66q0 -15 10 -15q6 0 11.5 8.5t5.5 14.5t-10 6q-17 0 -17 -14z" />
<glyph unicode="n" horiz-adv-x="874" d="M528 74q-26 59 -46.5 154t-35.5 145q-8 37 -29.5 101t-29.5 95q-16 62 -25 90q-12 35 -18.5 60t-11.5 55.5t-8 46.5q-7 33 -29 33q-10 0 -17.5 -20t-7.5 -41q0 -66 7.5 -148.5t7.5 -120.5q0 -18 -3 -54t-3 -56q0 -68 -4.5 -180t-4.5 -160q0 -24 -10.5 -39t-28.5 -17 q-11 -1 -31 -9.5t-38 -8.5q-40 0 -58.5 13.5t-19.5 47.5q-4 102 -4 353q0 26 2 67t2 60q0 47 -4 148t-4 161q0 21 2 61t2 60q0 11 3 78t3 81q0 43 4 122t4 102q0 39 25 58.5t53 19.5q8 0 57 1t62 1q26 0 46.5 -18.5t27.5 -53.5q8 -40 29 -110.5t28 -102.5q10 -43 27.5 -105 t21.5 -86q3 -18 19 -54.5t20 -51.5q3 -10 6 -31.5t6 -34.5t11 -24.5t20 -11.5q22 0 22 22q1 43 3 112t2.5 97t-0.5 86q-2 61 1.5 142.5t0.5 127.5q-2 28 1.5 46.5t13.5 28.5t18 14t22 8q14 7 41.5 3t34.5 -3q29 2 49 -15t20 -53q0 -23 -6 -69.5t-6 -71.5q0 -13 3.5 -49 t2.5 -52q-4 -92 -0.5 -174.5t0.5 -118.5q-8 -93 -3 -268.5t3 -230.5q-3 -61 -3.5 -112.5t0.5 -77t2 -46t1 -24.5q0 -33 -16.5 -52.5t-50.5 -19.5q-10 0 -31 -0.5t-31 -0.5t-26.5 1.5t-26.5 6.5t-23 13t-23.5 21.5t-19.5 32.5zM707 1303q-4 -6 -2 -10.5t10 -4.5q11 0 14 15 q1 3 3.5 8t2 6t-3.5 2q-12 0 -24 -16z" />
<glyph unicode="o" d="M94 233q-12 68 -12 197q0 15 1 38.5t1 35.5q0 9 -5 44t-5 66q0 25 4 123t4 146q0 30 -4 88q-5 97 3.5 165.5t45.5 145.5q44 91 108.5 129.5t157.5 38.5q50 0 117 -21t80 -61q6 -21 14.5 -30.5t28.5 -20.5q8 -5 14 -9.5t11.5 -10l9 -9t7 -11.5t5.5 -11.5t5 -14.5 t4.5 -15.5t5 -19t5.5 -20.5q29 -108 29 -219q0 -40 -1 -87.5t-1 -76.5q0 -38 2 -165.5t2 -190.5q0 -62 -2 -101t-10 -96t-28.5 -104t-53.5 -86q-37 -44 -110.5 -65t-133.5 -21q-119 0 -198.5 69.5t-100.5 179.5zM295 287q7 -55 46.5 -84t100.5 -29q24 0 52.5 36t31.5 64 q8 104 4 156q-1 16 7 40.5t8 35.5t-7 37.5t-8 42.5q-10 205 -10 309q0 25 4 84t4 86q0 31 -5.5 59t-18 56.5t-38 45.5t-60.5 17q-45 0 -74.5 -31.5t-32.5 -76.5q-4 -57 0.5 -196.5t-2.5 -180.5q-4 -27 -4.5 -60t1 -83t1.5 -78q0 -11 3 -35t3 -35q0 -14 -6.5 -82.5t0.5 -97.5 zM119 223q0 -18 12 -18q10 0 10 12q0 6 -5 11t-11 5t-6 -10z" />
<glyph unicode="p" horiz-adv-x="772" d="M90 68q-12 143 0 286q1 13 -0.5 30t-1.5 24q0 13 3 42t3 44q0 30 -3 91t-3 91q0 28 3 84t3 82q0 88 -4 127q-4 18 0 93.5t4 92.5q0 84 -4 125q-1 11 1.5 38.5t2.5 41.5q0 24 19 47t63 23q38 0 108.5 3t108.5 3q45 0 78 -5.5t50 -11t52 -20.5q43 -18 74.5 -47.5t49 -63 t27.5 -79.5t12.5 -85t2.5 -92q0 -40 -1 -107.5t-1 -76.5q0 -154 -110 -236q-37 -30 -65.5 -44t-69.5 -17q-9 0 -57.5 -6t-94.5 -6q-19 0 -30 -11t-11 -30q0 -30 -5 -84.5t-5 -81.5q0 -10 3 -31.5t3 -46.5v-178q0 -48 -29.5 -64t-91.5 -16q-41 0 -60.5 12.5t-23.5 59.5z M295 924q0 -96 4 -123q4 -24 13.5 -38t27.5 -20t30.5 -7t37.5 -1q54 0 92.5 38t38.5 106q0 10 1.5 34.5t1 43.5t-4.5 36q-4 22 -5.5 45.5t-0.5 56.5t1 35q0 61 -45 87t-114 26q-27 0 -45 -4t-26.5 -7t-12.5 -13.5t-4 -13v-15.5q0 -12 6 -23.5t8 -21.5q4 -17 4 -94 q0 -19 -4 -61.5t-4 -65.5zM258 1188q0 10 -6 10t-11 -5t-5 -11q0 -13 10 -13q12 0 12 19z" />
<glyph unicode="q" d="M674 139q0 -15 10 -24t45 -17q20 -4 27.5 -14t7.5 -29v-71q0 -4 3 -17.5t1 -25.5q-6 -29 -49 -29q-22 0 -58.5 11t-56.5 24q-16 11 -30.5 22t-21 17t-13 10t-11.5 4q-23 0 -63.5 -7t-67.5 -7q-79 0 -123 18q-85 34 -118 78q-30 39 -47.5 75.5t-24 86.5t-7.5 75t-1 97 q0 4 -2 23.5t-2 37.5q0 12 2 52t2 67q0 33 -3.5 91t-4.5 91.5t4 95.5q4 37 0 160q-2 62 6 105t39 80q9 11 20 52t29 68q34 53 97 82t132 29q67 0 132.5 -21.5t99.5 -64.5q54 -69 68 -96q24 -49 24 -125v-109q0 -15 6 -70.5t6 -111.5q0 -21 -4 -199t2 -198q5 -86 -2 -147.5 t-19 -86.5t-23 -46.5t-11 -35.5zM279 283q0 -42 33.5 -72.5t82.5 -30.5q50 0 84 31t33 78q-2 57 3 154.5t5 131.5q0 17 -4 45t-4 39q0 5 4 34.5t4 80.5q0 26 -4 147t-4 207q0 58 -31.5 97t-87.5 39q-40 0 -65.5 -15t-37.5 -46.5t-16 -64.5t-4 -85q0 -22 4.5 -70t4.5 -61 t0.5 -29.5t1 -32t1 -29t0.5 -21.5l1 -9q0 -68 -5.5 -198.5t-5.5 -196.5q0 -17 4.5 -38t4.5 -28q0 -9 -1 -28.5t-1 -28.5zM670 985q0 -14 12 -14q10 0 10 8q0 14 -10 14q-12 0 -12 -8z" />
<glyph unicode="r" horiz-adv-x="823" d="M295 860q0 -59 14 -71.5t64 -12.5q33 0 59 8.5t42.5 23t28 34t16.5 42.5t8.5 48.5t3 50.5t-0.5 50v9.5v9v9.5q0 102 -63 162q-7 7 -15 10.5t-20.5 5t-21.5 1.5t-29 -0.5t-33 -0.5q-32 0 -42 -14.5t-7 -50.5q7 -56 1.5 -181t-5.5 -133zM88 51q-6 39 -2 133 q2 45 -0.5 152.5t0.5 171.5q1 7 3.5 27t2.5 36q0 11 -3 30t-3 30q0 26 5 85t5 93v115q0 16 3 52t3 52q0 4 -9 41t-5 78q4 7 2 100t-2 94q0 27 9 45t27 27.5t36 13.5t45 7q21 6 122.5 1t125.5 -5q106 0 176.5 -46.5t89.5 -144.5q1 -5 11 -44.5t9 -61.5q-3 -52 -0.5 -87 t0 -79.5t-13.5 -87.5q-14 -54 -35 -93q-6 -10 -21 -27t-24.5 -31t-9.5 -26q0 -10 4 -18.5t9 -14.5t18.5 -21t23.5 -27q55 -67 51 -224q-1 -30 1.5 -117t-1.5 -120q-1 -14 4 -113q2 -22 -9 -34.5t-31 -12.5q-12 0 -33.5 -1.5t-39.5 -1.5t-34 3q-66 12 -66 100v123 q-4 110 -4 205q0 66 -45.5 113t-109.5 47q-48 0 -61 -18.5t-13 -61.5q0 -30 1 -89t1 -85q0 -23 -1 -61.5t-1 -57.5q0 -17 1 -48t1 -48v-7q0 -21 -1 -32.5t-5 -29.5t-16 -28.5t-31 -13.5q-5 0 -21 -4t-34 -6t-52 0q-45 4 -53 53zM338 1346q0 14 -17 33.5t-30 19.5 q-4 -3 -3.5 -8t4 -17t3.5 -16q0 -9 11 -16t22 -7q7 0 8.5 2t1.5 9z" />
<glyph unicode="s" horiz-adv-x="765" d="M299 -6q-22 4 -36.5 9t-25.5 13.5t-16 13t-15.5 19.5t-15.5 21q-21 29 -69 61q-15 9 -26 24t-17.5 37t-11 39t-6 47.5t-2 43.5t0 45t0.5 36q0 26 13.5 42t40.5 16q18 1 36.5 9.5t53.5 8.5q12 0 20.5 -3.5t14 -12.5t9 -17t5 -24.5t1.5 -26t0.5 -30.5t0.5 -31 q1 -33 5.5 -56.5t17 -48t38.5 -37t66 -12.5q56 0 88.5 33.5t32.5 89.5q0 61 -19 127.5t-57 101.5q-27 25 -52 53t-39.5 42t-31.5 20q-24 9 -51 37.5t-51 61.5t-29 38q-109 118 -109 351q0 111 84 213t193 102q78 0 133.5 -10.5t103.5 -38t79 -79.5t46 -130q2 -10 6.5 -26 t7.5 -29t3 -27q0 -38 -16 -65.5t-54 -24.5q-69 0 -90 2q-26 3 -37.5 28.5t-15 59.5t-10.5 67.5t-32 56.5t-71 23q-52 0 -86.5 -32t-34.5 -84q0 -38 19 -121q13 -54 41 -94.5t78 -87.5q9 -8 32 -27.5t41.5 -37.5t32.5 -36q10 -12 19.5 -33t23.5 -32q50 -41 86 -97 q28 -42 44 -97t16 -97q0 -44 -0.5 -67.5t-4 -63t-9.5 -62.5t-19 -54t-31.5 -51.5t-46.5 -41t-64 -35.5q-69 -24 -94 -24q-71 0 -137 12zM174 1100q0 -17 14 -17q15 0 15 17q0 14 -15 14q-5 0 -9.5 -5t-4.5 -9z" />
<glyph unicode="t" horiz-adv-x="724" d="M266 61q0 4 -5 71.5t-5 84.5q0 29 1 84.5t1 87.5q0 14 8 42.5t8 45.5q0 6 -6 36.5t-6 41.5q0 48 -3 139t-3 127q0 21 5 50t5 44q0 64 -1.5 113.5t-3 76t-1.5 34.5v12v15t-1 14.5t-2.5 15.5t-5 13t-8 12t-12 7t-16.5 3h-39q-88 -1 -114.5 6t-26.5 39q0 14 -4 43t-4 43 q0 13 1.5 22.5t3.5 17.5t7.5 13t10 8.5t15.5 5.5t20.5 3t27 1h32t40 -0.5t46.5 -0.5q12 0 109.5 1t112.5 1q32 0 51.5 -6.5t48.5 -6.5q14 0 43 4.5t66 4.5q28 0 37.5 -18t9.5 -73q0 -72 -32 -86t-162 -14h-19q-9 0 -15.5 -6t-10 -18t-6 -24t-3 -31t-1 -31t0 -32.5t0.5 -27.5 q0 -6 0.5 -31.5t1 -91.5t0.5 -172q0 -20 -5 -50t-5 -52q0 -12 6.5 -41t7.5 -53q3 -57 3.5 -126.5t0 -116t-2 -131t-1.5 -118.5q0 -46 -13 -66t-42 -20q-13 0 -37.5 -2t-46.5 -2q-62 0 -62 65zM440 545q0 8 -8 8q-7 0 -13.5 -10.5t-6.5 -14.5q0 -16 10 -16q18 0 18 33z" />
<glyph unicode="u" horiz-adv-x="815" d="M186 1434q10 0 30 -3.5t30 -3.5q30 0 39.5 -29t9.5 -93q0 -25 -3 -75t-3 -73q0 -12 -3 -38t-3 -40q0 -27 4 -80.5t4 -78.5v-187q0 -38 -1 -99t-1 -71q0 -33 -6.5 -58.5t-6.5 -27.5q0 -12 7.5 -35t7.5 -36q0 -154 28 -203t117 -49q38 0 64.5 36t36.5 82t10 95q0 53 -6 169 t-6 164q0 22 2 62t2 59q0 45 -3.5 138.5t-3.5 138.5q0 20 1.5 43t1.5 39q0 25 1 82t1 86q0 70 49 79q15 3 50 0.5t50 -0.5q17 1 31 -12t16 -31q2 -49 -2 -126.5t-4 -90.5q0 -15 1 -46t1 -48v-201q0 -22 2 -68t2 -71q0 -19 -2 -46.5t-2 -37.5q0 -19 2 -70t2 -69 q0 -188 -4 -205q-10 -43 -24.5 -65t-23.5 -33t-9 -33q0 -6 3 -19.5t3 -19.5q0 -28 -32.5 -64t-59.5 -48q-88 -39 -197 -39q-72 0 -126 22.5t-113 83.5q-28 31 -43.5 83.5t-18 93t-2.5 100.5q0 68 5 220t5 222q0 22 -5 127.5t-5 177.5q0 45 4 127t4 115q0 47 23.5 62.5 t68.5 15.5zM647 188q0 13 -6 13q-9 0 -16 -21q-1 -4 2 -7t8 -3q7 0 9.5 3.5t2.5 14.5z" />
<glyph unicode="v" horiz-adv-x="823" d="M555 1087q15 102 43 127q6 5 14 5.5t11.5 3t3.5 14.5q0 6 -3 11.5t-8 12.5t-8 13q-4 9 -6 21t-2.5 20t0 26.5t0.5 24.5q0 59 49 59q17 0 44 4.5t38 4.5q15 0 25.5 -6t15.5 -12t7.5 -20t2.5 -20v-22q0 -43 -21.5 -151t-23.5 -118l-147 -985q-8 -56 -24.5 -77t-63.5 -21 q-29 0 -71 -1.5t-61 -1.5t-45 2.5t-38.5 10t-24 23t-18.5 39.5q-6 22 -9.5 44t-5 37t-4 42t-4.5 47q-10 89 -24.5 175t-35.5 194.5t-34 189.5q-7 40 -17 123.5t-18 132.5q-43 251 -43 303q0 48 20 61t74 13q62 0 86.5 -15.5t24.5 -58.5q0 -82 28.5 -235t30.5 -169 q17 -130 35 -234t27.5 -155.5t11.5 -81.5q7 -81 35 -81q16 0 25.5 30t23 104.5t25.5 121.5q0 2 1.5 10t4 22t4.5 25q18 120 20 172q0 27 29 196z" />
<glyph unicode="w" horiz-adv-x="1153" d="M145 641q-3 26 -14.5 78t-15.5 98q-7 80 -21 213q-17 146 -18 156q-2 19 4.5 50.5t3.5 61.5q-1 11 -11 42t-10 46q0 9 2 16t6.5 12t9 9t12.5 6t14 3t16 1.5t16 0.5h17h16q66 0 74 -54q2 -15 13 -98.5t13 -97.5q15 -121 33.5 -310t32.5 -305q15 -129 37 -129q20 0 33 181 q4 32 12.5 105t13 115t9.5 104.5t6 117.5q4 99 36 309q3 20 10 33.5t14.5 20.5t24 10t26 3.5t31.5 0.5h13q82 0 90 -60q16 -126 21 -204q0 -61 22 -228q3 -26 5.5 -76.5t5.5 -76.5q2 -16 11.5 -93t10.5 -88q0 -3 3 -30t3 -29q0 -16 10 -44t23 -28q16 0 24.5 21.5t8.5 36.5 q19 202 20 254q2 55 18.5 162.5t16.5 162.5q0 33 4 64t13.5 81t11.5 64q1 9 2.5 33t3.5 37t11.5 25t27.5 12q13 0 43 2t49 2q18 0 29.5 -9t11.5 -26q0 -65 -29 -203q0 -15 -5 -57.5t-5 -71.5q0 -72 -16 -215q-6 -50 -17.5 -134t-13.5 -101q-14 -103 -14 -138 q-3 -34 -15 -141q-22 -208 -24 -233q-2 -24 -6.5 -42t-11 -30.5t-16 -20t-22 -12t-28 -6.5t-34.5 -2h-41h-26h-7q-23 0 -37 1t-35 6t-31.5 18t-10.5 34q-6 49 -12 151t-10 144q0 19 -7 59t-9 58q-13 115 -17 137q-6 39 -22 39q-6 0 -11.5 -6t-7.5 -14q-4 -29 -16 -93 t-15 -106q-9 -106 -24 -223q-2 -11 -1.5 -39.5t-1.5 -52.5t-8 -49t-23.5 -39.5t-45.5 -14.5q-18 0 -73 -5t-89 -5q-26 0 -43 14t-23.5 35t-9.5 46.5t-1.5 49t-0.5 41.5q-3 53 -14 146t-14 127q-3 27 -7 84t-8 100zM494 467q0 -25 14 -25q12 0 12 25q0 16 -2.5 20.5t-9.5 4.5 q-14 0 -14 -25z" />
<glyph unicode="x" horiz-adv-x="880" d="M672 -2q-56 0 -68 39q-51 135 -59 184q-5 31 -23.5 89t-21.5 71q-34 129 -70 129q-10 0 -17 -6t-15 -24.5t-14.5 -37.5t-20 -59t-27.5 -76q-32 -82 -84 -260q-5 -16 -15.5 -26t-29 -14t-31 -4.5t-38.5 -0.5h-3.5h-3.5h-4q-35 0 -48 20t-5 52q8 34 33 99.5t34 102.5 q7 27 28 81.5t28 82.5q13 51 42 140.5t37 115.5q15 47 0 90l-100 320q-4 12 -9 36.5t-12 48t-20 48.5q-54 103 -51 156q1 16 8.5 24.5t15 10.5t20 2.5t15.5 1.5q34 7 86 0q27 -3 44.5 -20.5t29.5 -57.5l59 -195l17 -49q1 -4 5 -18.5t8 -27t9.5 -29.5t11.5 -30t12.5 -25.5 t14 -19t15.5 -6.5q11 0 18 5.5t14 23.5q2 4 7.5 25.5t15.5 48.5q9 22 21 47.5t18.5 42.5t9.5 33q16 88 45 184q14 48 41 62t90 14q72 0 72 -39q0 -26 -10 -55q-76 -210 -88 -256q-15 -55 -88 -248q-28 -78 -19 -127q8 -46 37.5 -135t38.5 -131q13 -58 46 -139.5t40 -106.5 q10 -32 20.5 -63.5l16 -48t8.5 -30.5q2 -13 2 -27t-9 -25t-24 -11q-28 0 -62 -1t-44 -1zM209 104q0 -12 12 -12q10 0 10 12q0 15 -6 15t-11 -4.5t-5 -10.5z" />
<glyph unicode="y" d="M301 49q-6 38 0 88q6 64 0 127q-3 30 -4 65t-0.5 58.5t1.5 46t1 25.5q0 72 -35.5 178.5t-38.5 120.5q-26 108 -73 248q-72 208 -101 319q-6 23 -8 38t0 34t16.5 29t40.5 10q11 0 39 -6.5t43 -4.5q19 3 35 -9t21 -30q7 -25 20 -72.5t21 -74.5q64 -188 92 -324 q13 -65 47 -65q19 0 31 37q6 21 22 69t25 80q6 24 22 96.5t33 124.5q18 60 20 66q4 11 6.5 28t4.5 28.5t8 23.5t19 18t34 6q16 0 45.5 -2t48.5 -2q17 0 28.5 -18t-1.5 -53q-8 -20 -21 -74q-7 -34 -30 -102t-31 -109q-22 -99 -81 -279.5t-69 -214.5q-22 -72 -22 -194 q0 -20 -4 -92.5t0 -77.5q4 -31 0 -123q-3 -61 -26.5 -74.5t-100.5 -13.5q-31 0 -53 13.5t-25 37.5zM88 1292q0 -10 10 -10q8 0 8 10q0 8 -8 8q-10 0 -10 -8z" />
<glyph unicode="z" horiz-adv-x="757" d="M68 115q0 85 34 176q27 68 121.5 296.5t130.5 325.5q31 80 56 113q9 14 18.5 60.5t20.5 74.5q33 78 -48 78q-10 0 -27.5 1.5t-31.5 1.5t-27 -3q-19 -4 -38.5 -4.5t-44 1t-35.5 1.5q-87 0 -106 19t-19 106q0 65 49 65q11 0 81 3.5t91 -0.5q44 -4 97 -4t118 2t98 2 q23 0 39.5 -7t24.5 -16t12.5 -24.5t5 -24.5t0.5 -23q0 -86 -16 -127q-4 -9 -32.5 -85t-45.5 -113q-18 -39 -44 -119t-42 -115q-69 -154 -111.5 -273t-52.5 -141q-45 -105 -45 -120q0 -46 37 -52q53 -2 141 -2q11 0 59.5 3.5t96.5 3.5q28 0 41.5 -15.5t13.5 -40.5 q0 -9 -1 -31.5t-1 -31.5q0 -27 -7 -43.5t-22.5 -23t-27 -8t-33.5 -1.5q-5 0 -34 -1t-57 -1t-46 2q-26 3 -84 3t-134.5 -1.5t-103.5 -1.5q-17 0 -30 5.5t-20 17.5t-11.5 20.5t-6 26.5t-1.5 23.5v21.5zM551 1155q0 -7 0.5 -8.5t5.5 -1.5q12 0 12 10q0 8 -12 8q-6 0 -6 -8z" />
<glyph unicode="&#xad;" horiz-adv-x="552" d="M406 813q59 0 63 -37q5 -10 0.5 -52t-4.5 -52q0 -22 -11.5 -34.5t-29.5 -12.5t-43.5 -2t-40.5 -2q-26 0 -75.5 -1.5t-86.5 -1.5q-97 0 -104 58q-6 46 0 92q2 18 12 28.5t27 10.5q30 0 87.5 -1t84.5 -1q24 0 62.5 4t58.5 4z" />
<glyph unicode="&#x2000;" horiz-adv-x="729" />
<glyph unicode="&#x2001;" horiz-adv-x="1458" />
<glyph unicode="&#x2002;" horiz-adv-x="729" />
<glyph unicode="&#x2003;" horiz-adv-x="1458" />
<glyph unicode="&#x2004;" horiz-adv-x="486" />
<glyph unicode="&#x2005;" horiz-adv-x="364" />
<glyph unicode="&#x2006;" horiz-adv-x="243" />
<glyph unicode="&#x2007;" horiz-adv-x="243" />
<glyph unicode="&#x2008;" horiz-adv-x="182" />
<glyph unicode="&#x2009;" horiz-adv-x="291" />
<glyph unicode="&#x200a;" horiz-adv-x="81" />
<glyph unicode="&#x2010;" horiz-adv-x="552" d="M406 813q59 0 63 -37q5 -10 0.5 -52t-4.5 -52q0 -22 -11.5 -34.5t-29.5 -12.5t-43.5 -2t-40.5 -2q-26 0 -75.5 -1.5t-86.5 -1.5q-97 0 -104 58q-6 46 0 92q2 18 12 28.5t27 10.5q30 0 87.5 -1t84.5 -1q24 0 62.5 4t58.5 4z" />
<glyph unicode="&#x2011;" horiz-adv-x="552" d="M406 813q59 0 63 -37q5 -10 0.5 -52t-4.5 -52q0 -22 -11.5 -34.5t-29.5 -12.5t-43.5 -2t-40.5 -2q-26 0 -75.5 -1.5t-86.5 -1.5q-97 0 -104 58q-6 46 0 92q2 18 12 28.5t27 10.5q30 0 87.5 -1t84.5 -1q24 0 62.5 4t58.5 4z" />
<glyph unicode="&#x2012;" horiz-adv-x="552" d="M406 813q59 0 63 -37q5 -10 0.5 -52t-4.5 -52q0 -22 -11.5 -34.5t-29.5 -12.5t-43.5 -2t-40.5 -2q-26 0 -75.5 -1.5t-86.5 -1.5q-97 0 -104 58q-6 46 0 92q2 18 12 28.5t27 10.5q30 0 87.5 -1t84.5 -1q24 0 62.5 4t58.5 4z" />
<glyph unicode="&#x2013;" horiz-adv-x="1175" d="M927 813q151 0 161 -37q13 -10 1.5 -52t-11.5 -52q0 -22 -29.5 -34.5t-75.5 -12.5t-111 -2t-103 -2q-67 0 -193.5 -1.5t-221.5 -1.5q-247 0 -265 58q-16 46 0 92q5 18 30.5 28.5t68.5 10.5q77 0 224 -1t216 -1q61 0 159.5 4t149.5 4z" />
<glyph unicode="&#x2014;" horiz-adv-x="2198" d="M1783 813q302 0 323 -37q25 -10 2 -52t-23 -52q0 -22 -58.5 -34.5t-151 -12.5t-222.5 -2t-207 -2q-133 0 -386 -1.5t-442 -1.5q-496 0 -532 58q-30 46 0 92q11 18 62 28.5t138 10.5q153 0 447 -1t432 -1q123 0 319.5 4t298.5 4z" />
<glyph unicode="&#x202f;" horiz-adv-x="291" />
<glyph unicode="&#x205f;" horiz-adv-x="364" />
<glyph unicode="&#xe000;" horiz-adv-x="1443" d="M0 1444h1444v-1444h-1444v1444z" />
</font>
</defs>
</svg>
